<svg width="16" height="16" viewBox="0 0 16 16" fill="none" xmlns="http://www.w3.org/2000/svg">
<path d="M1.77778 2C1.30628 2 0.854097 2.1873 0.520699 2.5207C0.187301 2.8541 0 3.30628 0 3.77778L0 11.7778C0 12.2493 0.187301 12.7015 0.520699 13.0349C0.854097 13.3683 1.30628 13.5556 1.77778 13.5556H4.88889V2H1.77778Z" fill="#006847"/>
<path d="M14.2222 2H11.1111V13.5556H14.2222C14.6937 13.5556 15.1459 13.3683 15.4793 13.0349C15.8127 12.7015 16 12.2493 16 11.7778V3.77778C16 3.30628 15.8127 2.8541 15.4793 2.5207C15.1459 2.1873 14.6937 2 14.2222 2Z" fill="#CE1126"/>
<path d="M4.88892 2H11.1111V13.5556H4.88892V2Z" fill="#EEEEEE"/>
<path d="M10.2221 7.77777C10.2221 8.36714 9.98801 8.93237 9.57127 9.34912C9.15452 9.76587 8.58929 9.99999 7.99992 9.99999C7.41055 9.99999 6.84532 9.76587 6.42857 9.34912C6.01182 8.93237 5.7777 8.36714 5.7777 7.77777H5.33325C5.33325 8.48501 5.6142 9.16329 6.1143 9.66339C6.6144 10.1635 7.29267 10.4444 7.99992 10.4444C8.70716 10.4444 9.38544 10.1635 9.88554 9.66339C10.3856 9.16329 10.6666 8.48501 10.6666 7.77777H10.2221Z" fill="#A6D388"/>
<path d="M6.01925 8.78621C6.00599 8.7602 5.98772 8.73706 5.9655 8.71811C5.94329 8.69916 5.91756 8.68478 5.88978 8.67578C5.862 8.66678 5.83272 8.66335 5.80361 8.66567C5.77451 8.668 5.74614 8.67603 5.72014 8.68933C5.69409 8.70255 5.67091 8.72079 5.65191 8.74299C5.63292 8.76519 5.61849 8.79091 5.60945 8.8187C5.60041 8.84648 5.59694 8.87577 5.59923 8.9049C5.60152 8.93402 5.60953 8.96241 5.62281 8.98844C5.66281 9.06725 5.70666 9.1437 5.75436 9.21777L5.75614 9.22088L5.7597 9.22621L5.76103 9.22933L5.76148 9.23021L5.76325 9.23244L5.76459 9.2351V9.23599L5.76592 9.23821L5.76636 9.2391L5.7677 9.24132L5.76814 9.24221L5.76948 9.24399L5.77036 9.24532L5.77125 9.24666L5.7717 9.24799L5.77303 9.25021L5.77348 9.25066L5.77436 9.25199L5.7757 9.25466L5.77614 9.25555L5.77748 9.25777L5.77792 9.25866L5.78103 9.2631V9.26355L5.78325 9.26666C5.80636 9.30044 5.83022 9.33436 5.85481 9.36755C5.87216 9.39088 5.89396 9.41056 5.91894 9.42545C5.94392 9.44035 5.97159 9.45016 6.00037 9.45433C6.02916 9.4585 6.05848 9.45695 6.08666 9.44976C6.11484 9.44257 6.14132 9.42989 6.16459 9.41244C6.21181 9.37728 6.24316 9.32482 6.25174 9.26657C6.26033 9.20833 6.24544 9.14905 6.21036 9.10177C6.13945 9.00112 6.0756 8.89568 6.01925 8.78621ZM5.79836 8.0831C5.78125 7.96048 5.77441 7.83664 5.77792 7.71288C5.77959 7.65401 5.75783 7.59689 5.71742 7.55405C5.677 7.51122 5.62123 7.48618 5.56236 7.48444L5.54636 7.48488C5.49027 7.48733 5.43719 7.51092 5.39778 7.5509C5.35836 7.59089 5.33555 7.64431 5.33392 7.70044C5.33288 7.7465 5.33273 7.79259 5.33348 7.83866V7.87866L5.33392 7.88088V7.89333L5.33436 7.89466L5.33392 7.89555V7.89688L5.33436 7.89777V7.91066L5.33481 7.91199V7.91688L5.33525 7.92533L5.3357 7.92932V7.93421C5.33985 8.00532 5.34666 8.07599 5.35614 8.14621C5.36441 8.20429 5.39531 8.25675 5.44211 8.29213C5.4889 8.32752 5.54778 8.34296 5.60592 8.3351C5.63514 8.33127 5.66331 8.32171 5.68882 8.30695C5.71433 8.2922 5.73666 8.27254 5.75455 8.24912C5.77243 8.2257 5.78551 8.19898 5.79303 8.17049C5.80055 8.142 5.80236 8.1123 5.79836 8.0831ZM8.15125 9.99421L8.14859 9.99466L8.09348 9.99821C7.9882 10.0026 7.88275 9.99947 7.77792 9.98888C7.71928 9.98299 7.6607 10.0006 7.61506 10.0379C7.56943 10.0752 7.54048 10.1291 7.53459 10.1878C7.52869 10.2464 7.54634 10.305 7.58364 10.3506C7.62093 10.3963 7.67483 10.4252 7.73348 10.4311L7.78903 10.436L7.79081 10.4364L7.7917 10.436L7.79303 10.4364H7.79392L7.79659 10.4369H7.79925L7.80059 10.4373L7.8037 10.4369L7.80503 10.4373H7.80725L7.80992 10.4378L7.81214 10.4382H7.81792L7.82059 10.4387H7.82636C7.89392 10.4434 7.96192 10.4452 8.03036 10.444H8.0477L8.05081 10.4435L8.05348 10.444H8.06014L8.06236 10.4435H8.07081L8.07348 10.4431L8.07614 10.4435L8.07659 10.4431L8.07925 10.4435H8.0797L8.08192 10.4431H8.08548L8.08814 10.4427H8.09081L8.09125 10.4431L8.09392 10.4427H8.09703L8.09925 10.4422H8.10814L8.11036 10.4418H8.11214L8.11392 10.4413L8.1157 10.4418H8.11792L8.1197 10.4413H8.12192L8.17836 10.4382C8.23592 10.4336 8.28933 10.4064 8.32701 10.3626C8.3647 10.3189 8.38363 10.262 8.3797 10.2044C8.37856 10.1756 8.37173 10.1473 8.35962 10.1211C8.34751 10.0949 8.33035 10.0714 8.30913 10.0519C8.28791 10.0324 8.26303 10.0172 8.23594 10.0073C8.20885 9.99741 8.18007 9.99296 8.15125 9.99421ZM7.06725 9.7951C6.9551 9.74326 6.84747 9.68216 6.74548 9.61244C6.70593 9.58536 6.65869 9.5718 6.61081 9.57377C6.56427 9.57574 6.51952 9.59228 6.48289 9.62106C6.44626 9.64984 6.4196 9.6894 6.40668 9.73416C6.39376 9.77891 6.39523 9.8266 6.41089 9.87047C6.42654 9.91434 6.45559 9.95219 6.49392 9.97866L6.49436 9.9791L6.49703 9.98044L6.4997 9.9831L6.50236 9.98488L6.50503 9.9871C6.62355 10.0677 6.74829 10.1382 6.87925 10.1987C6.93266 10.2233 6.99367 10.2258 7.04891 10.2056C7.10415 10.1853 7.1491 10.144 7.17392 10.0907C7.19896 10.0373 7.20179 9.97622 7.18178 9.92079C7.16178 9.86537 7.12058 9.82016 7.06725 9.7951ZM9.30281 9.61821C9.26357 9.62012 9.22554 9.63238 9.19259 9.65377C9.0888 9.72004 8.97968 9.77757 8.86636 9.82577C8.81747 9.84518 8.77709 9.88137 8.75246 9.92785C8.72783 9.97433 8.72056 10.0281 8.73195 10.0794C8.74335 10.1308 8.77266 10.1764 8.81464 10.2081C8.85662 10.2398 8.90852 10.2555 8.96103 10.2524C8.98746 10.2514 9.0135 10.2457 9.03792 10.2355L9.09748 10.2089H9.09837L9.10103 10.2071L9.10192 10.2067L9.1037 10.2058H9.10548L9.10725 10.2049L9.10814 10.204L9.11081 10.2035L9.1117 10.2027L9.11303 10.2018L9.11525 10.2009L9.11659 10.2004L9.11881 10.1995L9.1197 10.1991L9.12192 10.1982L9.12281 10.1978C9.1237 10.1969 9.12444 10.1964 9.12503 10.1964L9.12592 10.196L9.12859 10.1947H9.12948L9.13214 10.1933L9.13481 10.192L9.1357 10.1915L9.13792 10.1902L9.13881 10.1898L9.14148 10.1884L9.14192 10.188L9.14503 10.1875L9.14814 10.1858L9.14903 10.1853L9.15081 10.184H9.1517L9.15436 10.1822L9.15792 10.1813L9.16059 10.1795L9.16414 10.1778L9.16459 10.1773L9.17081 10.1747L9.17392 10.1733L9.18014 10.1698L9.1837 10.1684L9.18636 10.1671L9.19303 10.1635L9.1957 10.1622L9.20592 10.1569L9.20903 10.156L9.21525 10.1524L9.21836 10.1507H9.21881C9.21911 10.1501 9.22014 10.1498 9.22192 10.1498C9.22281 10.1486 9.2237 10.1478 9.22459 10.1475L9.22814 10.1458L9.23081 10.1444V10.144L9.23703 10.1413L9.24059 10.1395L9.24103 10.1391L9.24325 10.1378L9.24681 10.136L9.24948 10.1347H9.25036L9.25303 10.1329L9.25614 10.1311L9.25659 10.1307L9.25925 10.1293L9.26192 10.128L9.26281 10.1275L9.26459 10.1262L9.26592 10.1258L9.26814 10.1244L9.26903 10.124L9.27125 10.1227L9.27214 10.1222L9.27481 10.1213C9.27451 10.121 9.27466 10.1209 9.27525 10.1209L9.27792 10.1195L9.27881 10.1191L9.28059 10.1178L9.28148 10.1173L9.28414 10.116L9.28503 10.1155C9.28503 10.115 9.28562 10.1145 9.28681 10.1142L9.28814 10.1138L9.28992 10.1129L9.29125 10.112L9.29303 10.1111L9.29436 10.1102L9.2957 10.1093L9.29703 10.108L9.29925 10.1075L9.30103 10.1071L9.30192 10.1062L9.3037 10.1053L9.30548 10.104L9.30636 10.1035L9.30814 10.1027L9.30992 10.1013L9.31125 10.1004C9.31185 10.1007 9.31259 10.1006 9.31348 10.1L9.31436 10.0991L9.31614 10.0982L9.31748 10.0973L9.31881 10.0964L9.32059 10.0955L9.32236 10.0942L9.32325 10.0938C9.32444 10.0938 9.32562 10.0933 9.32681 10.0924C9.32592 10.0921 9.32592 10.0924 9.32681 10.0924L9.32859 10.0911L9.3317 10.0889L9.33259 10.0884L9.3357 10.0871L9.34103 10.084L9.34459 10.0818L9.35348 10.0769C9.38192 10.06 9.41051 10.0427 9.43836 10.0249C9.48795 9.99314 9.52292 9.94302 9.53558 9.88552C9.54825 9.82803 9.53758 9.76785 9.50592 9.71821C9.48264 9.6864 9.45201 9.6607 9.41664 9.64328C9.38127 9.62587 9.34222 9.61727 9.30281 9.61821ZM10.4455 7.56577L10.4348 7.56621C10.3777 7.56862 10.3236 7.59296 10.284 7.63419C10.2443 7.67542 10.2221 7.73035 10.2219 7.78755C10.2219 7.91066 10.2108 8.0351 10.1899 8.15599C10.18 8.21416 10.1936 8.27388 10.2278 8.32202C10.2619 8.37015 10.3137 8.40276 10.3719 8.41266C10.4301 8.42256 10.4898 8.40895 10.5379 8.37482C10.5861 8.34068 10.6187 8.28883 10.6286 8.23066V8.22844L10.629 8.22755L10.6295 8.22666L10.629 8.22577L10.6295 8.22488V8.22399L10.6299 8.2231V8.22177L10.6304 8.22088V8.21688L10.6313 8.2151V8.21244C10.6409 8.15478 10.6486 8.09682 10.6544 8.03866L10.6539 8.03821L10.6544 8.03688L10.6548 8.03466V8.02977L10.6557 8.02844L10.6553 8.02666V8.02577L10.6557 8.02444V8.02266L10.6566 8.02221L10.6557 8.02088V8.0191C10.6566 8.01851 10.6569 8.01807 10.6566 8.01777V8.00932L10.6575 8.00799C10.6636 7.93482 10.6667 7.86098 10.6668 7.78755C10.6667 7.72884 10.6433 7.67257 10.6019 7.63101C10.5604 7.58946 10.5042 7.566 10.4455 7.56577ZM10.2486 8.76399C10.223 8.74984 10.1949 8.74087 10.1659 8.73759C10.1369 8.73431 10.1075 8.73679 10.0794 8.74488C10.0513 8.75297 10.0251 8.76652 10.0023 8.78475C9.97948 8.80297 9.96047 8.82552 9.94636 8.8511C9.88644 8.95916 9.81761 9.06204 9.74059 9.15866C9.70429 9.20484 9.68776 9.26351 9.69459 9.32185C9.70143 9.38019 9.73109 9.43344 9.77708 9.46998C9.82307 9.50651 9.88166 9.52335 9.94003 9.51682C9.9984 9.51028 10.0518 9.4809 10.0886 9.4351C10.1404 9.36992 10.1893 9.30251 10.2353 9.23288C10.2364 9.22992 10.2381 9.22695 10.2401 9.22399L10.2406 9.22355L10.2424 9.22088L10.2441 9.21733C10.2453 9.21644 10.2459 9.21555 10.2459 9.21466L10.2464 9.2151L10.2481 9.21244V9.21199L10.2495 9.20888L10.2504 9.20844L10.2521 9.20577L10.2535 9.2031L10.2539 9.20266L10.2557 9.19999L10.2561 9.1991L10.257 9.19688L10.2584 9.19599L10.2593 9.19377H10.2601L10.261 9.1911L10.2615 9.19021L10.2633 9.18844L10.2637 9.18755C10.2637 9.18666 10.2641 9.18592 10.265 9.18532L10.2655 9.18399L10.2673 9.18266C10.2673 9.18207 10.2675 9.18162 10.2681 9.18133V9.17955L10.2695 9.17866L10.2708 9.17644L10.2713 9.17555L10.2726 9.17288L10.2735 9.17199L10.2744 9.17021L10.2753 9.16888C10.2753 9.16829 10.2755 9.16784 10.2761 9.16755C10.2761 9.16695 10.2764 9.16651 10.277 9.16621L10.2784 9.16399L10.2788 9.16266L10.2797 9.16133L10.2806 9.15999C10.2815 9.1594 10.2818 9.15895 10.2815 9.15866C10.2824 9.15836 10.2827 9.15777 10.2824 9.15688L10.2833 9.15555L10.2846 9.15377L10.2859 9.15199V9.15066L10.2868 9.14933L10.2881 9.14755L10.2895 9.14621V9.14488L10.2913 9.14266V9.14133C10.2921 9.14103 10.2926 9.14044 10.2926 9.13955L10.2935 9.13866L10.2944 9.13732L10.2957 9.1351L10.2966 9.13377V9.13288L10.2984 9.13066C10.2984 9.13007 10.2987 9.12962 10.2993 9.12933L10.2997 9.12799L10.301 9.12621L10.3019 9.12444L10.3028 9.1231L10.3037 9.12133C10.3037 9.12073 10.304 9.12044 10.3046 9.12044L10.3055 9.11821L10.3064 9.11732L10.3073 9.11466L10.3081 9.11421L10.309 9.11244L10.3099 9.11155L10.3108 9.10933L10.3117 9.10844L10.3126 9.10577C10.3132 9.10518 10.3132 9.10488 10.3126 9.10488L10.3144 9.10266L10.3148 9.10177L10.3166 9.09955V9.0991L10.3179 9.09644L10.3188 9.09555L10.3197 9.09288L10.3219 9.09021L10.3233 9.08755V9.0871L10.325 9.08399L10.3259 9.08355L10.337 9.06266C10.3644 9.01122 10.3704 8.9511 10.3539 8.89524C10.3374 8.83938 10.2995 8.79224 10.2486 8.76399Z" fill="#5C913B"/>
<path d="M8.00008 9.55558C8.73646 9.55558 9.33341 9.35659 9.33341 9.11113C9.33341 8.86567 8.73646 8.66669 8.00008 8.66669C7.2637 8.66669 6.66675 8.86567 6.66675 9.11113C6.66675 9.35659 7.2637 9.55558 8.00008 9.55558Z" fill="#55ACEE"/>
<path d="M8.22233 9.55558C8.59052 9.55558 8.889 9.35659 8.889 9.11113C8.889 8.86567 8.59052 8.66669 8.22233 8.66669C7.85414 8.66669 7.55566 8.86567 7.55566 9.11113C7.55566 9.35659 7.85414 9.55558 8.22233 9.55558Z" fill="#FFCC4D"/>
<path d="M8.49639 9.23286C8.45797 9.23254 8.42029 9.22233 8.38697 9.20321C8.35365 9.18408 8.32582 9.15669 8.30616 9.12368C8.28651 9.09067 8.27569 9.05316 8.27476 9.01475C8.27383 8.97634 8.28281 8.93835 8.30083 8.90442C8.37194 8.77346 8.44631 8.65568 8.52394 8.55109C8.46028 8.55379 8.39656 8.55512 8.33283 8.55509C8.21017 8.55509 8.09817 8.45509 8.09817 8.33242C8.09817 8.20975 8.18483 8.1102 8.30794 8.1102L8.34439 8.11064C8.47594 8.11064 8.61105 8.10264 8.73194 8.09153C8.76561 8.08813 8.79962 8.09263 8.83125 8.10467C8.86288 8.1167 8.89127 8.13594 8.91417 8.16086C8.92009 8.15583 8.92646 8.15123 8.93328 8.14709C8.97772 8.11775 9.0192 8.0939 9.05772 8.07553C9.08529 8.05448 9.11741 8.04017 9.1515 8.03375L9.1675 8.03064C9.25106 8.00353 9.30972 7.99998 9.33328 7.99998C9.36808 7.99985 9.40242 8.00793 9.43352 8.02357C9.46461 8.0392 9.49158 8.06195 9.51223 8.08997C9.53289 8.11798 9.54664 8.15047 9.55238 8.1848C9.55813 8.21912 9.55569 8.25432 9.54528 8.28753C9.50883 8.40575 9.4275 8.43242 9.28483 8.46086C9.24754 8.47578 9.21206 8.49487 9.17905 8.51775C9.13878 8.54369 9.09132 8.5562 9.04349 8.55349C8.99566 8.55077 8.94992 8.53297 8.91283 8.50264C8.94305 8.54175 8.95937 8.58982 8.95921 8.63924C8.95905 8.68866 8.94242 8.73662 8.91194 8.77553C8.83609 8.87242 8.76261 8.9862 8.6915 9.11686C8.6724 9.15195 8.64421 9.18124 8.60987 9.20165C8.57554 9.22207 8.53633 9.23285 8.49639 9.23286ZM7.86528 8.52664L7.83594 8.52486C7.67721 8.50425 7.52029 8.47141 7.36661 8.42664C7.33862 8.41834 7.31253 8.4046 7.28985 8.3862C7.26717 8.36781 7.24834 8.34513 7.23443 8.31946C7.22052 8.29379 7.21181 8.26562 7.20879 8.23658C7.20577 8.20754 7.2085 8.17818 7.21683 8.1502L7.2195 8.14131L7.21417 8.15153C7.19991 8.17702 7.18077 8.19945 7.15784 8.21754C7.1349 8.23562 7.10863 8.24901 7.08052 8.25694C7.05241 8.26486 7.02301 8.26717 6.99401 8.26372C6.96501 8.26028 6.93697 8.25115 6.9115 8.23686C6.76343 8.15564 6.6277 8.05372 6.50839 7.9342C6.46791 7.89229 6.44551 7.83615 6.44602 7.77789C6.44652 7.71962 6.46989 7.66388 6.51109 7.62268C6.5523 7.58148 6.60803 7.55811 6.6663 7.5576C6.72456 7.5571 6.7807 7.5795 6.82261 7.61998C6.91061 7.70798 7.01254 7.78427 7.12839 7.84886C7.17367 7.87424 7.20864 7.91467 7.22723 7.96314C7.24582 8.0116 7.24686 8.06505 7.23017 8.1142C7.25351 8.06742 7.2926 8.03036 7.34056 8.00955C7.38852 7.98874 7.44228 7.98551 7.49239 8.00042C7.61505 8.03686 7.74972 8.06486 7.89239 8.08398C7.94836 8.09109 7.99953 8.11924 8.03552 8.1627C8.0715 8.20616 8.08961 8.26169 8.08616 8.31801C8.08271 8.37433 8.05796 8.42722 8.01694 8.46597C7.97592 8.50472 7.9217 8.52641 7.86528 8.52664ZM6.7755 7.48709C6.58617 7.48709 6.34128 7.41375 6.19283 7.23864C5.96528 6.9702 5.8315 6.62575 5.85194 6.36175C5.85728 6.29109 5.78839 6.2342 5.72083 6.21642C5.68217 6.2062 5.61417 6.19998 5.58217 6.26886C5.57604 6.28211 5.56736 6.29403 5.55663 6.30392C5.54589 6.31382 5.53332 6.3215 5.51962 6.32654C5.50592 6.33157 5.49136 6.33386 5.47677 6.33327C5.46218 6.33267 5.44786 6.32922 5.43461 6.32309C5.42136 6.31696 5.40945 6.30828 5.39955 6.29755C5.38966 6.28682 5.38197 6.27424 5.37694 6.26054C5.3719 6.24684 5.36962 6.23228 5.37021 6.21769C5.3708 6.20311 5.37426 6.18878 5.38039 6.17553C5.44972 6.02486 5.60528 5.95775 5.77683 6.00131C5.93594 6.04264 6.08839 6.18575 6.07328 6.37909C6.05728 6.58442 6.17372 6.87198 6.36217 7.09464C6.46128 7.21198 6.63372 7.25953 6.75105 7.26398C6.84661 7.26886 6.89505 7.24709 6.90528 7.23775C6.88039 7.17864 6.55105 7.00531 6.41061 6.93153C6.29105 6.86886 6.2555 6.78264 6.24661 6.72175C6.21683 6.51953 6.42439 6.31464 6.62528 6.11731C6.69594 6.04753 6.76305 5.98175 6.7995 5.93331C6.84083 5.87864 6.83417 5.8422 6.82617 5.81953C6.7955 5.73642 6.66261 5.6542 6.50261 5.61864C6.35417 5.58546 6.2552 5.51449 6.20572 5.40575C6.14128 5.26309 6.1755 5.07642 6.30972 4.83464C6.31681 4.82189 6.32635 4.81066 6.33778 4.80159C6.34921 4.79252 6.36232 4.78579 6.37635 4.78179C6.39038 4.77779 6.40506 4.77659 6.41956 4.77826C6.43405 4.77993 6.44808 4.78444 6.46083 4.79153C6.47358 4.79862 6.48482 4.80816 6.49388 4.81959C6.50295 4.83102 6.50968 4.84413 6.51368 4.85816C6.51769 4.87219 6.51889 4.88687 6.51722 4.90137C6.51554 4.91586 6.51103 4.92989 6.50394 4.94264C6.37728 5.1702 6.38972 5.27331 6.40839 5.31464C6.42705 5.35553 6.47446 5.38442 6.55061 5.40131C6.73861 5.44309 6.96483 5.55464 7.03417 5.7422C7.07372 5.84931 7.05372 5.96486 6.97728 6.06664C6.93105 6.12842 6.85817 6.19998 6.78128 6.27598C6.66661 6.38886 6.45283 6.59909 6.46661 6.68975C6.46928 6.70842 6.49372 6.72486 6.51417 6.73509C6.84794 6.9102 7.06972 7.03686 7.11505 7.19198C7.12288 7.21845 7.12526 7.24624 7.12205 7.27366C7.11884 7.30109 7.11011 7.32757 7.09639 7.35153C7.05328 7.42664 6.9635 7.47286 6.83639 7.48442C6.81713 7.4862 6.79683 7.48709 6.7755 7.48709Z" fill="#5C913B"/>
<path d="M8.66656 8.2222C8.78929 8.2222 8.88878 8.02322 8.88878 7.77776C8.88878 7.5323 8.78929 7.33331 8.66656 7.33331C8.54383 7.33331 8.44434 7.5323 8.44434 7.77776C8.44434 8.02322 8.54383 8.2222 8.66656 8.2222Z" fill="#FFCC4D"/>
<path d="M7.68543 7.41687C7.68543 7.54487 7.5321 7.64842 7.34276 7.64842C7.15387 7.64842 7.0001 7.54487 7.0001 7.41687C7.0001 7.28887 7.15343 7.18531 7.34276 7.18531C7.53165 7.18531 7.68543 7.28887 7.68543 7.41687ZM7.15787 5.36042C7.1801 5.45465 7.05698 5.56487 6.88276 5.6062C6.70854 5.64753 6.54943 5.60442 6.52676 5.5102C6.50454 5.41553 6.62765 5.30531 6.80143 5.26398C6.9761 5.22309 7.13565 5.26576 7.15787 5.36042Z" fill="#FFCC4D"/>
<path d="M10.0146 7.75778C10.0546 7.78889 10.1226 7.43378 10.1124 7.32311C10.1124 7.31555 10.0995 7.08044 10.1493 6.91244C10.1799 6.85555 10.1817 6.43111 10.1346 6.31956C10.1719 6.31644 10.2168 6.30444 10.2221 6.25911C10.0497 6.32267 10.0093 5.896 9.84348 5.65067C9.68259 5.40489 9.48303 5.26178 9.27459 5.11244C9.2921 5.06889 9.3164 5.02839 9.34659 4.99244C9.09104 5.12044 8.69281 4.65689 8.10437 4.69156C7.97237 4.70444 7.9097 4.71244 7.87592 4.79333C7.76615 4.80222 7.65459 4.82711 7.65459 4.97156C7.65459 5.00622 7.68615 5.06933 7.75637 5.06978C7.85237 5.09778 7.93059 5.076 7.99592 5.21022L8.01326 5.34889C8.01326 5.34889 7.92748 5.23911 7.88037 5.22178L7.90926 5.16267C7.86481 5.13689 7.78615 5.15778 7.78615 5.15778C7.78615 5.15778 7.61504 5.07778 7.4777 5.09911L7.45103 4.988C7.42703 5.05644 7.37326 5.05289 7.3657 5.11733C7.35059 5.07111 7.33059 5.01378 7.31637 4.96756C7.26792 5.03333 7.28215 5.10444 7.26481 5.17289C7.24615 5.18889 7.20792 5.18933 7.19815 5.14533C7.19326 5.09111 7.18659 5.08622 7.18659 5.02178C7.15192 5.08267 7.11015 5.11244 7.09637 5.21689L7.05948 5.10133C7.06081 5.23778 6.94348 5.31911 6.83237 5.41556C6.80081 5.47333 6.83726 5.47378 6.83992 5.50356L6.89859 5.53289L7.00392 5.52533C7.02126 5.54711 7.00704 5.54889 7.05281 5.56267C7.17548 5.59689 7.32837 5.44978 7.44837 5.68133C7.39326 5.72756 7.3377 5.83556 7.35548 5.856C7.3777 5.856 7.31104 5.88711 7.40081 5.85867C7.30748 5.94933 7.24437 6.06889 7.24437 6.076C7.2337 6.10178 7.2817 6.07244 7.27192 6.11911L7.29415 6.11644C7.08126 6.34667 7.28703 6.59422 7.26437 6.72711C7.29992 6.78444 7.30437 6.72578 7.34881 6.72C7.38615 6.88356 7.4937 6.98267 7.55948 7.112L7.42081 7.11333C7.42392 7.17467 7.47948 7.23289 7.52348 7.28667L7.43059 7.316C7.37067 7.34548 7.31743 7.38693 7.27415 7.43778C7.24348 7.51244 7.42215 7.53022 7.50837 7.54356L7.50526 7.63378C7.63992 7.64667 7.79548 7.60667 7.79548 7.59911L7.82926 7.57289L7.90526 7.61467C7.93059 7.61467 7.97015 7.51333 7.95192 7.43555C8.00081 7.49378 8.04703 7.58756 8.09592 7.64622L8.1417 7.64C8.18348 7.70622 8.24081 7.772 8.28259 7.83822L8.32926 7.856C8.35637 7.84667 8.37948 7.84356 8.39415 7.79022L8.41548 7.82755L8.48926 7.77689L8.54081 7.76667L8.57948 7.82978C8.60215 7.82133 8.62437 7.772 8.6257 7.71955C8.64881 7.76533 8.65503 7.76178 8.67192 7.77378L8.70615 7.70178L8.89059 7.87422L9.03015 7.88222C9.07992 7.916 9.21637 7.93733 9.23948 7.88267C9.35148 7.93067 9.48348 7.87644 9.47681 7.82311C9.57992 7.864 9.73859 7.83644 9.73859 7.82978C9.7577 7.82756 9.80659 7.77956 9.76037 7.74356C9.41948 7.50622 8.91415 7.11333 8.71903 7.01867C8.71903 6.94844 8.66615 6.69556 8.60926 6.62622L8.65548 6.54889C8.78837 6.67289 8.83637 6.66089 8.90704 6.68044C8.98259 6.74044 9.00881 6.83156 9.08437 6.91467L9.15192 6.92711C9.09665 6.7826 9.01292 6.65066 8.9057 6.53911C8.97859 6.57556 9.09948 6.67289 9.18037 6.74356C9.2337 6.83289 9.24926 6.904 9.29815 7.016C9.3337 7.03867 9.37015 7.12178 9.36526 7.05289C9.35681 6.92355 9.2657 6.71867 9.2657 6.704C9.41059 6.81867 9.40881 6.99733 9.45281 7.10622C9.4897 7.16133 9.50837 7.23511 9.52437 7.21778L9.4817 6.88178L9.45681 6.75867C9.56392 6.82044 9.60215 7.056 9.65237 7.33867C9.65237 7.38355 9.67059 7.43289 9.66792 7.46178C9.69104 7.49022 9.71726 7.56889 9.71681 7.52222C9.71681 7.52222 9.71681 7.06267 9.68526 6.95733C9.67726 6.90089 9.69859 6.80933 9.69859 6.80933C9.7377 7 9.77948 7.20667 9.81904 7.39689V7.53689L9.8777 7.596C9.88881 7.48044 9.90215 7.36578 9.9137 7.25111L9.8697 6.84V6.72267C9.86881 6.68133 9.90748 6.68889 9.93192 6.736C9.9377 6.83689 9.9377 6.91555 9.9417 7.016C9.95903 7.13067 9.97104 7.21467 9.97948 7.36089C9.98437 7.47911 9.9897 7.76267 10.0146 7.75778Z" fill="#C1694F"/>
</svg>
