<svg width="16" height="16" viewBox="0 0 16 16" fill="none" xmlns="http://www.w3.org/2000/svg">
<path d="M16 11.7778C16 12.2493 15.8127 12.7015 15.4793 13.0349C15.1459 13.3683 14.6937 13.5556 14.2222 13.5556H1.77778C1.30628 13.5556 0.854097 13.3683 0.520699 13.0349C0.187301 12.7015 0 12.2493 0 11.7778V3.77778C0 3.30628 0.187301 2.8541 0.520699 2.5207C0.854097 2.1873 1.30628 2 1.77778 2H14.2222C14.6937 2 15.1459 2.1873 15.4793 2.5207C15.8127 2.8541 16 3.30628 16 3.77778V11.7778Z" fill="#75AADB"/>
<path d="M0 5.55548H16V9.99993H0V5.55548Z" fill="#EEEEEE"/>
<path d="M7.99981 5.55548L8.2167 6.68793L8.85048 5.72481L8.61714 6.8537L9.57092 6.20615L8.92337 7.16037L10.0527 6.92748L9.08959 7.56081L10.222 7.7777L9.08959 7.99459L10.0527 8.62837L8.92337 8.39504L9.57092 9.34881L8.61714 8.70126L8.85048 9.83059L8.2167 8.86748L7.99981 9.99993L7.78292 8.86748L7.14959 9.83059L7.38248 8.70126L6.42825 9.34881L7.07581 8.39504L5.94692 8.62837L6.91003 7.99459L5.77759 7.7777L6.91003 7.56081L5.94692 6.92748L7.07581 7.16037L6.42825 6.20615L7.38248 6.8537L7.14959 5.72481L7.78292 6.68793L7.99981 5.55548Z" fill="#FCBF49"/>
<path d="M7.99981 6.14659L8.10737 6.70881L8.15892 6.9777L8.30959 6.74926L8.62426 6.27104L8.50825 6.83148L8.4527 7.09993L8.67937 6.94615L9.15314 6.62481L8.83181 7.09859L8.67803 7.32526L8.94603 7.2697L9.50692 7.15415L9.0287 7.46881L8.79981 7.61859L9.0687 7.67015L9.63092 7.7777L9.0687 7.88526L8.79981 7.93681L9.02825 8.08748L9.50648 8.40215L8.94559 8.28615L8.67714 8.23059L8.83092 8.45726L9.15226 8.93059L8.67892 8.60926L8.45225 8.45548L8.50781 8.72393L8.62381 9.28481L8.30914 8.80659L8.15892 8.5777L8.10737 8.84659L7.99981 9.40881L7.89225 8.84659L7.8407 8.5777L7.69003 8.80659L7.37537 9.28481L7.49092 8.72393L7.54648 8.45593L7.31981 8.6097L6.84603 8.93104L7.16737 8.45726L7.32114 8.23059L7.0527 8.28615L6.49225 8.40215L6.97048 8.08748L7.19892 7.93681L6.93003 7.88526L6.3687 7.7777L6.93092 7.67015L7.19981 7.61859L6.97092 7.46793L6.4927 7.15326L7.05314 7.26881L7.32114 7.32437L7.16737 7.0977L6.84559 6.62393L7.31937 6.9457L7.54603 7.09948L7.49048 6.83148L7.37492 6.27104L7.68959 6.74926L7.84026 6.97815L7.89181 6.70926L7.99981 6.14659ZM7.99981 5.55548L7.78292 6.68793L7.14959 5.72481L7.38248 6.85415L6.42825 6.20659L7.07581 7.16081L5.94692 6.92793L6.91003 7.56126L5.77759 7.7777L6.91003 7.99459L5.94692 8.62837L7.07581 8.39504L6.42825 9.34881L7.38248 8.70126L7.14959 9.83059L7.78292 8.86748L7.99981 9.99993L8.2167 8.86748L8.85048 9.83059L8.61714 8.70126L9.57092 9.34881L8.92337 8.39504L10.0527 8.62837L9.08959 7.99459L10.222 7.7777L9.08959 7.56081L10.0527 6.92748L8.92337 7.16037L9.57092 6.20615L8.61714 6.8537L8.85048 5.72437L8.2167 6.68748L7.99981 5.55548Z" fill="#843511"/>
<path d="M7.99997 8.66663C8.49089 8.66663 8.88886 8.26866 8.88886 7.77774C8.88886 7.28682 8.49089 6.88885 7.99997 6.88885C7.50905 6.88885 7.11108 7.28682 7.11108 7.77774C7.11108 8.26866 7.50905 8.66663 7.99997 8.66663Z" fill="#FCBF49"/>
<path d="M8.00011 8.7222C7.47922 8.7222 7.05566 8.29865 7.05566 7.77776C7.05566 7.25687 7.47922 6.83331 8.00011 6.83331C8.521 6.83331 8.94455 7.25687 8.94455 7.77776C8.94455 8.29865 8.521 8.7222 8.00011 8.7222ZM8.00011 6.94442C7.54055 6.94442 7.16678 7.3182 7.16678 7.77776C7.16678 8.23731 7.54055 8.61109 8.00011 8.61109C8.45966 8.61109 8.83344 8.23731 8.83344 7.77776C8.83344 7.3182 8.45966 6.94442 8.00011 6.94442Z" fill="#843511"/>
<path d="M7.91149 7.67731C7.91149 7.7462 7.79549 7.80175 7.65238 7.80175C7.50882 7.80175 7.39282 7.7462 7.39282 7.67731C7.39282 7.60842 7.50882 7.55286 7.65238 7.55286C7.79593 7.55286 7.91149 7.60842 7.91149 7.67731ZM8.60171 7.66664C8.60171 7.59509 8.48349 7.53687 8.33771 7.53687C8.19193 7.53687 8.07371 7.59464 8.07371 7.66664C8.07371 7.73864 8.19193 7.79642 8.33771 7.79642C8.48393 7.79642 8.60171 7.7382 8.60171 7.66664Z" fill="#C16540"/>
<path d="M7.76147 8.16623C7.76147 8.11023 7.87081 8.06445 8.00503 8.06445C8.13925 8.06445 8.24859 8.10979 8.24859 8.16623C8.24859 8.22223 8.13925 8.26801 8.00503 8.26801C7.87081 8.26801 7.76147 8.22223 7.76147 8.16623Z" fill="#ED8662"/>
</svg>
