<svg width="1em" height="1em" viewBox="0 0 16 16" fill="none" xmlns="http://www.w3.org/2000/svg">
<path d="M1.77778 4C1.30628 4 0.854097 4.1873 0.520699 4.5207C0.187301 4.8541 0 5.30628 0 5.77778L0 13.7778C0 14.2493 0.187301 14.7015 0.520699 15.0349C0.854097 15.3683 1.30628 15.5556 1.77778 15.5556H4.88889V4H1.77778Z" fill="#006847"/>
<path d="M14.2222 4H11.1111V15.5556H14.2222C14.6937 15.5556 15.1459 15.3683 15.4793 15.0349C15.8127 14.7015 16 14.2493 16 13.7778V5.77778C16 5.30628 15.8127 4.8541 15.4793 4.5207C15.1459 4.1873 14.6937 4 14.2222 4Z" fill="#CE1126"/>
<path d="M4.88892 4H11.1111V15.5556H4.88892V4Z" fill="#EEEEEE"/>
<path d="M10.2221 9.77777C10.2221 10.3671 9.98801 10.9324 9.57127 11.3491C9.15452 11.7659 8.58929 12 7.99992 12C7.41055 12 6.84532 11.7659 6.42857 11.3491C6.01182 10.9324 5.7777 10.3671 5.7777 9.77777H5.33325C5.33325 10.485 5.6142 11.1633 6.1143 11.6634C6.6144 12.1635 7.29267 12.4444 7.99992 12.4444C8.70716 12.4444 9.38544 12.1635 9.88554 11.6634C10.3856 11.1633 10.6666 10.485 10.6666 9.77777H10.2221Z" fill="#A6D388"/>
<path d="M6.01925 10.7862C6.00599 10.7602 5.98772 10.7371 5.9655 10.7181C5.94329 10.6992 5.91756 10.6848 5.88978 10.6758C5.862 10.6668 5.83272 10.6633 5.80361 10.6657C5.77451 10.668 5.74614 10.676 5.72014 10.6893C5.69409 10.7026 5.67091 10.7208 5.65191 10.743C5.63292 10.7652 5.61849 10.7909 5.60945 10.8187C5.60041 10.8465 5.59694 10.8758 5.59923 10.9049C5.60152 10.934 5.60953 10.9624 5.62281 10.9884C5.66281 11.0673 5.70666 11.1437 5.75436 11.2178L5.75614 11.2209L5.7597 11.2262L5.76103 11.2293L5.76148 11.2302L5.76325 11.2324L5.76459 11.2351V11.236L5.76592 11.2382L5.76636 11.2391L5.7677 11.2413L5.76814 11.2422L5.76948 11.244L5.77036 11.2453L5.77125 11.2467L5.7717 11.248L5.77303 11.2502L5.77348 11.2507L5.77436 11.252L5.7757 11.2547L5.77614 11.2555L5.77748 11.2578L5.77792 11.2587L5.78103 11.2631V11.2635L5.78325 11.2667C5.80636 11.3004 5.83022 11.3344 5.85481 11.3675C5.87216 11.3909 5.89396 11.4106 5.91894 11.4255C5.94392 11.4403 5.97159 11.4502 6.00037 11.4543C6.02916 11.4585 6.05848 11.4569 6.08666 11.4498C6.11484 11.4426 6.14132 11.4299 6.16459 11.4124C6.21181 11.3773 6.24316 11.3248 6.25174 11.2666C6.26033 11.2083 6.24544 11.1491 6.21036 11.1018C6.13945 11.0011 6.0756 10.8957 6.01925 10.7862ZM5.79836 10.0831C5.78125 9.96048 5.77441 9.83664 5.77792 9.71288C5.77959 9.65401 5.75783 9.59689 5.71742 9.55405C5.677 9.51122 5.62123 9.48618 5.56236 9.48444L5.54636 9.48488C5.49027 9.48733 5.43719 9.51092 5.39778 9.5509C5.35836 9.59089 5.33555 9.64431 5.33392 9.70044C5.33288 9.7465 5.33273 9.79259 5.33348 9.83866V9.87866L5.33392 9.88088V9.89332L5.33436 9.89466L5.33392 9.89555V9.89688L5.33436 9.89777V9.91066L5.33481 9.91199V9.91688L5.33525 9.92533L5.3357 9.92932V9.93421C5.33985 10.0053 5.34666 10.076 5.35614 10.1462C5.36441 10.2043 5.39531 10.2567 5.44211 10.2921C5.4889 10.3275 5.54778 10.343 5.60592 10.3351C5.63514 10.3313 5.66331 10.3217 5.68882 10.307C5.71433 10.2922 5.73666 10.2725 5.75455 10.2491C5.77243 10.2257 5.78551 10.199 5.79303 10.1705C5.80055 10.142 5.80236 10.1123 5.79836 10.0831ZM8.15125 11.9942L8.14859 11.9947L8.09348 11.9982C7.9882 12.0026 7.88275 11.9995 7.77792 11.9889C7.71928 11.983 7.6607 12.0006 7.61506 12.0379C7.56943 12.0752 7.54048 12.1291 7.53459 12.1878C7.52869 12.2464 7.54634 12.305 7.58364 12.3506C7.62093 12.3963 7.67483 12.4252 7.73348 12.4311L7.78903 12.436L7.79081 12.4364L7.7917 12.436L7.79303 12.4364H7.79392L7.79659 12.4369H7.79925L7.80059 12.4373L7.8037 12.4369L7.80503 12.4373H7.80725L7.80992 12.4378L7.81214 12.4382H7.81792L7.82059 12.4387H7.82636C7.89392 12.4434 7.96192 12.4452 8.03037 12.444H8.0477L8.05081 12.4435L8.05348 12.444H8.06014L8.06236 12.4435H8.07081L8.07348 12.4431L8.07614 12.4435L8.07659 12.4431L8.07925 12.4435H8.0797L8.08192 12.4431H8.08548L8.08814 12.4427H8.09081L8.09125 12.4431L8.09392 12.4427H8.09703L8.09925 12.4422H8.10814L8.11036 12.4418H8.11214L8.11392 12.4413L8.1157 12.4418H8.11792L8.1197 12.4413H8.12192L8.17836 12.4382C8.23592 12.4336 8.28933 12.4064 8.32701 12.3626C8.3647 12.3189 8.38363 12.262 8.3797 12.2044C8.37856 12.1756 8.37173 12.1473 8.35962 12.1211C8.34751 12.0949 8.33035 12.0714 8.30913 12.0519C8.28791 12.0324 8.26303 12.0172 8.23594 12.0073C8.20885 11.9974 8.18007 11.993 8.15125 11.9942ZM7.06725 11.7951C6.9551 11.7433 6.84747 11.6822 6.74548 11.6124C6.70593 11.5854 6.65869 11.5718 6.61081 11.5738C6.56427 11.5757 6.51952 11.5923 6.48289 11.6211C6.44626 11.6498 6.4196 11.6894 6.40668 11.7342C6.39376 11.7789 6.39523 11.8266 6.41089 11.8705C6.42654 11.9143 6.45559 11.9522 6.49392 11.9787L6.49436 11.9791L6.49703 11.9804L6.4997 11.9831L6.50236 11.9849L6.50503 11.9871C6.62355 12.0677 6.74829 12.1382 6.87925 12.1987C6.93266 12.2233 6.99367 12.2258 7.04891 12.2056C7.10415 12.1853 7.1491 12.144 7.17392 12.0907C7.19896 12.0373 7.20179 11.9762 7.18178 11.9208C7.16178 11.8654 7.12058 11.8202 7.06725 11.7951ZM9.30281 11.6182C9.26357 11.6201 9.22554 11.6324 9.19259 11.6538C9.0888 11.72 8.97968 11.7776 8.86636 11.8258C8.81747 11.8452 8.77709 11.8814 8.75246 11.9279C8.72783 11.9743 8.72056 12.0281 8.73195 12.0794C8.74335 12.1308 8.77266 12.1764 8.81464 12.2081C8.85662 12.2398 8.90852 12.2555 8.96103 12.2524C8.98746 12.2514 9.0135 12.2457 9.03792 12.2355L9.09748 12.2089H9.09836L9.10103 12.2071L9.10192 12.2067L9.1037 12.2058H9.10548L9.10725 12.2049L9.10814 12.204L9.11081 12.2035L9.1117 12.2027L9.11303 12.2018L9.11525 12.2009L9.11659 12.2004L9.11881 12.1995L9.1197 12.1991L9.12192 12.1982L9.12281 12.1978C9.1237 12.1969 9.12444 12.1964 9.12503 12.1964L9.12592 12.196L9.12859 12.1947H9.12948L9.13214 12.1933L9.13481 12.192L9.1357 12.1915L9.13792 12.1902L9.13881 12.1898L9.14148 12.1884L9.14192 12.188L9.14503 12.1875L9.14814 12.1858L9.14903 12.1853L9.15081 12.184H9.1517L9.15436 12.1822L9.15792 12.1813L9.16059 12.1795L9.16414 12.1778L9.16459 12.1773L9.17081 12.1747L9.17392 12.1733L9.18014 12.1698L9.1837 12.1684L9.18636 12.1671L9.19303 12.1635L9.1957 12.1622L9.20592 12.1569L9.20903 12.156L9.21525 12.1524L9.21836 12.1507H9.21881C9.21911 12.1501 9.22014 12.1498 9.22192 12.1498C9.22281 12.1486 9.2237 12.1478 9.22459 12.1475L9.22814 12.1458L9.23081 12.1444V12.144L9.23703 12.1413L9.24059 12.1395L9.24103 12.1391L9.24325 12.1378L9.24681 12.136L9.24948 12.1347H9.25036L9.25303 12.1329L9.25614 12.1311L9.25659 12.1307L9.25925 12.1293L9.26192 12.128L9.26281 12.1275L9.26459 12.1262L9.26592 12.1258L9.26814 12.1244L9.26903 12.124L9.27125 12.1227L9.27214 12.1222L9.27481 12.1213C9.27451 12.121 9.27466 12.1209 9.27525 12.1209L9.27792 12.1195L9.27881 12.1191L9.28059 12.1178L9.28148 12.1173L9.28414 12.116L9.28503 12.1155C9.28503 12.115 9.28562 12.1145 9.28681 12.1142L9.28814 12.1138L9.28992 12.1129L9.29125 12.112L9.29303 12.1111L9.29436 12.1102L9.2957 12.1093L9.29703 12.108L9.29925 12.1075L9.30103 12.1071L9.30192 12.1062L9.3037 12.1053L9.30548 12.104L9.30636 12.1035L9.30814 12.1027L9.30992 12.1013L9.31125 12.1004C9.31185 12.1007 9.31259 12.1006 9.31348 12.1L9.31436 12.0991L9.31614 12.0982L9.31748 12.0973L9.31881 12.0964L9.32059 12.0955L9.32236 12.0942L9.32325 12.0938C9.32444 12.0938 9.32562 12.0933 9.32681 12.0924C9.32592 12.0924 9.32592 12.0921 9.32681 12.0924L9.32859 12.0911L9.3317 12.0889L9.33259 12.0884L9.3357 12.0871L9.34103 12.084L9.34459 12.0818L9.35348 12.0769C9.38192 12.06 9.41051 12.0427 9.43836 12.0249C9.48795 11.9931 9.52292 11.943 9.53558 11.8855C9.54825 11.828 9.53758 11.7679 9.50592 11.7182C9.48264 11.6864 9.45201 11.6607 9.41664 11.6433C9.38127 11.6259 9.34222 11.6173 9.30281 11.6182ZM10.4455 9.56577L10.4348 9.56621C10.3777 9.56862 10.3236 9.59296 10.284 9.63419C10.2443 9.67542 10.2221 9.73035 10.2219 9.78755C10.2219 9.91066 10.2108 10.0351 10.1899 10.156C10.18 10.2142 10.1936 10.2739 10.2278 10.322C10.2619 10.3702 10.3137 10.4028 10.3719 10.4127C10.4301 10.4226 10.4898 10.4089 10.5379 10.3748C10.5861 10.3407 10.6187 10.2888 10.6286 10.2307V10.2284L10.629 10.2275L10.6295 10.2267L10.629 10.2258L10.6295 10.2249V10.224L10.6299 10.2231V10.2218L10.6304 10.2209V10.2169L10.6313 10.2151V10.2124C10.6409 10.1548 10.6486 10.0968 10.6544 10.0387L10.6539 10.0382L10.6544 10.0369L10.6548 10.0347V10.0298L10.6557 10.0284L10.6553 10.0267V10.0258L10.6557 10.0244V10.0227L10.6566 10.0222L10.6557 10.0209V10.0191C10.6566 10.0185 10.6569 10.0181 10.6566 10.0178V10.0093L10.6575 10.008C10.6636 9.93482 10.6667 9.86098 10.6668 9.78755C10.6667 9.72884 10.6433 9.67257 10.6019 9.63101C10.5604 9.58946 10.5042 9.566 10.4455 9.56577ZM10.2486 10.764C10.223 10.7498 10.1949 10.7409 10.1659 10.7376C10.1369 10.7343 10.1075 10.7368 10.0794 10.7449C10.0513 10.753 10.0251 10.7665 10.0023 10.7847C9.97948 10.803 9.96047 10.8255 9.94636 10.8511C9.88644 10.9592 9.81761 11.062 9.74059 11.1587C9.70429 11.2048 9.68776 11.2635 9.69459 11.3218C9.70143 11.3802 9.73109 11.4334 9.77708 11.47C9.82307 11.5065 9.88166 11.5234 9.94003 11.5168C9.9984 11.5103 10.0518 11.4809 10.0886 11.4351C10.1404 11.3699 10.1893 11.3025 10.2353 11.2329C10.2364 11.2299 10.2381 11.227 10.2401 11.224L10.2406 11.2235L10.2424 11.2209L10.2441 11.2173C10.2453 11.2164 10.2459 11.2155 10.2459 11.2147L10.2464 11.2151L10.2481 11.2124V11.212L10.2495 11.2089L10.2504 11.2084L10.2521 11.2058L10.2535 11.2031L10.2539 11.2027L10.2557 11.2L10.2561 11.1991L10.257 11.1969L10.2584 11.196L10.2593 11.1938H10.2601L10.261 11.1911L10.2615 11.1902L10.2633 11.1884L10.2637 11.1875C10.2637 11.1867 10.2641 11.1859 10.265 11.1853L10.2655 11.184L10.2673 11.1827C10.2673 11.1821 10.2676 11.1816 10.2681 11.1813V11.1795L10.2695 11.1787L10.2708 11.1764L10.2713 11.1755L10.2726 11.1729L10.2735 11.172L10.2744 11.1702L10.2753 11.1689C10.2753 11.1683 10.2755 11.1678 10.2761 11.1675C10.2761 11.167 10.2764 11.1665 10.277 11.1662L10.2784 11.164L10.2788 11.1627L10.2797 11.1613L10.2806 11.16C10.2815 11.1594 10.2818 11.159 10.2815 11.1587C10.2824 11.1584 10.2827 11.1578 10.2824 11.1569L10.2833 11.1555L10.2846 11.1538L10.2859 11.152V11.1507L10.2868 11.1493L10.2881 11.1475L10.2895 11.1462V11.1449L10.2913 11.1427V11.1413C10.2921 11.141 10.2926 11.1404 10.2926 11.1395L10.2935 11.1387L10.2944 11.1373L10.2957 11.1351L10.2966 11.1338V11.1329L10.2984 11.1307C10.2984 11.1301 10.2987 11.1296 10.2993 11.1293L10.2997 11.128L10.301 11.1262L10.3019 11.1244L10.3028 11.1231L10.3037 11.1213C10.3037 11.1207 10.304 11.1204 10.3046 11.1204L10.3055 11.1182L10.3064 11.1173L10.3073 11.1147L10.3081 11.1142L10.309 11.1124L10.3099 11.1115L10.3108 11.1093L10.3117 11.1084L10.3126 11.1058C10.3132 11.1052 10.3132 11.1049 10.3126 11.1049L10.3144 11.1027L10.3148 11.1018L10.3166 11.0995V11.0991L10.3179 11.0964L10.3188 11.0955L10.3197 11.0929L10.3219 11.0902L10.3233 11.0875V11.0871L10.325 11.084L10.3259 11.0835L10.337 11.0627C10.3644 11.0112 10.3704 10.9511 10.3539 10.8952C10.3374 10.8394 10.2995 10.7922 10.2486 10.764Z" fill="#5C913B"/>
<path d="M8.00008 11.5556C8.73646 11.5556 9.33341 11.3566 9.33341 11.1111C9.33341 10.8657 8.73646 10.6667 8.00008 10.6667C7.2637 10.6667 6.66675 10.8657 6.66675 11.1111C6.66675 11.3566 7.2637 11.5556 8.00008 11.5556Z" fill="#55ACEE"/>
<path d="M8.22233 11.5556C8.59052 11.5556 8.889 11.3566 8.889 11.1111C8.889 10.8657 8.59052 10.6667 8.22233 10.6667C7.85414 10.6667 7.55566 10.8657 7.55566 11.1111C7.55566 11.3566 7.85414 11.5556 8.22233 11.5556Z" fill="#FFCC4D"/>
<path d="M8.49639 11.2329C8.45797 11.2325 8.42029 11.2223 8.38697 11.2032C8.35365 11.1841 8.32582 11.1567 8.30616 11.1237C8.28651 11.0907 8.27569 11.0532 8.27476 11.0148C8.27383 10.9763 8.28281 10.9383 8.30083 10.9044C8.37194 10.7735 8.44631 10.6557 8.52394 10.5511C8.46028 10.5538 8.39656 10.5551 8.33283 10.5551C8.21017 10.5551 8.09817 10.4551 8.09817 10.3324C8.09817 10.2098 8.18483 10.1102 8.30794 10.1102L8.34439 10.1106C8.47594 10.1106 8.61105 10.1026 8.73194 10.0915C8.76562 10.0881 8.79962 10.0926 8.83125 10.1047C8.86288 10.1167 8.89127 10.1359 8.91417 10.1609C8.92009 10.1558 8.92646 10.1512 8.93328 10.1471C8.97772 10.1178 9.0192 10.0939 9.05772 10.0755C9.08529 10.0545 9.11741 10.0402 9.1515 10.0338L9.1675 10.0306C9.25105 10.0035 9.30972 9.99998 9.33328 9.99998C9.36808 9.99985 9.40242 10.0079 9.43352 10.0236C9.46461 10.0392 9.49158 10.062 9.51223 10.09C9.53289 10.118 9.54664 10.1505 9.55238 10.1848C9.55812 10.2191 9.55569 10.2543 9.54528 10.2875C9.50883 10.4058 9.4275 10.4324 9.28483 10.4609C9.24754 10.4758 9.21206 10.4949 9.17905 10.5178C9.13878 10.5437 9.09132 10.5562 9.04349 10.5535C8.99566 10.5508 8.94992 10.533 8.91283 10.5026C8.94305 10.5418 8.95937 10.5898 8.95921 10.6392C8.95905 10.6887 8.94242 10.7366 8.91194 10.7755C8.83609 10.8724 8.76261 10.9862 8.6915 11.1169C8.6724 11.152 8.64421 11.1812 8.60987 11.2017C8.57554 11.2221 8.53633 11.2329 8.49639 11.2329ZM7.86528 10.5266L7.83594 10.5249C7.67721 10.5042 7.52029 10.4714 7.36661 10.4266C7.33862 10.4183 7.31253 10.4046 7.28985 10.3862C7.26717 10.3678 7.24834 10.3451 7.23443 10.3195C7.22052 10.2938 7.21181 10.2656 7.20879 10.2366C7.20577 10.2075 7.2085 10.1782 7.21683 10.1502L7.2195 10.1413L7.21417 10.1515C7.19991 10.177 7.18077 10.1995 7.15784 10.2175C7.1349 10.2356 7.10863 10.249 7.08052 10.2569C7.05241 10.2649 7.02301 10.2672 6.99401 10.2637C6.96501 10.2603 6.93697 10.2512 6.9115 10.2369C6.76343 10.1556 6.6277 10.0537 6.50839 9.9342C6.46791 9.89229 6.44551 9.83615 6.44602 9.77789C6.44652 9.71962 6.46989 9.66388 6.51109 9.62268C6.5523 9.58148 6.60803 9.55811 6.6663 9.5576C6.72456 9.5571 6.7807 9.5795 6.82261 9.61998C6.91061 9.70798 7.01254 9.78427 7.12839 9.84886C7.17367 9.87424 7.20864 9.91467 7.22723 9.96314C7.24582 10.0116 7.24686 10.065 7.23017 10.1142C7.25351 10.0674 7.2926 10.0304 7.34056 10.0096C7.38852 9.98874 7.44228 9.98551 7.49239 10.0004C7.61505 10.0369 7.74972 10.0649 7.89239 10.084C7.94836 10.0911 7.99953 10.1192 8.03552 10.1627C8.0715 10.2062 8.08961 10.2617 8.08616 10.318C8.08271 10.3743 8.05796 10.4272 8.01694 10.466C7.97592 10.5047 7.9217 10.5264 7.86528 10.5266ZM6.7755 9.48709C6.58617 9.48709 6.34128 9.41375 6.19283 9.23864C5.96528 8.9702 5.8315 8.62575 5.85194 8.36175C5.85728 8.29109 5.78839 8.2342 5.72083 8.21642C5.68217 8.2062 5.61417 8.19998 5.58217 8.26886C5.57604 8.28211 5.56736 8.29403 5.55663 8.30392C5.54589 8.31382 5.53332 8.3215 5.51962 8.32654C5.50592 8.33157 5.49136 8.33386 5.47677 8.33327C5.46218 8.33267 5.44786 8.32921 5.43461 8.32309C5.42136 8.31696 5.40945 8.30828 5.39955 8.29755C5.38966 8.28682 5.38197 8.27424 5.37694 8.26054C5.3719 8.24684 5.36962 8.23228 5.37021 8.21769C5.3708 8.20311 5.37426 8.18878 5.38039 8.17553C5.44972 8.02486 5.60528 7.95775 5.77683 8.00131C5.93594 8.04264 6.08839 8.18575 6.07328 8.37909C6.05728 8.58442 6.17372 8.87198 6.36217 9.09464C6.46128 9.21198 6.63372 9.25953 6.75105 9.26398C6.84661 9.26886 6.89505 9.24709 6.90528 9.23775C6.88039 9.17864 6.55105 9.00531 6.41061 8.93153C6.29105 8.86886 6.2555 8.78264 6.24661 8.72175C6.21683 8.51953 6.42439 8.31464 6.62528 8.11731C6.69594 8.04753 6.76305 7.98175 6.7995 7.93331C6.84083 7.87864 6.83417 7.8422 6.82617 7.81953C6.7955 7.73642 6.66261 7.6542 6.50261 7.61864C6.35417 7.58546 6.2552 7.51449 6.20572 7.40575C6.14128 7.26309 6.1755 7.07642 6.30972 6.83464C6.31681 6.82189 6.32635 6.81066 6.33778 6.80159C6.34921 6.79252 6.36232 6.78579 6.37635 6.78179C6.39038 6.77779 6.40506 6.77659 6.41956 6.77826C6.43405 6.77993 6.44808 6.78444 6.46083 6.79153C6.47358 6.79862 6.48482 6.80816 6.49388 6.81959C6.50295 6.83102 6.50968 6.84413 6.51368 6.85816C6.51769 6.87219 6.51889 6.88687 6.51722 6.90137C6.51554 6.91586 6.51103 6.92989 6.50394 6.94264C6.37728 7.1702 6.38972 7.27331 6.40839 7.31464C6.42705 7.35553 6.47446 7.38442 6.55061 7.40131C6.73861 7.44309 6.96483 7.55464 7.03417 7.7422C7.07372 7.84931 7.05372 7.96486 6.97728 8.06664C6.93105 8.12842 6.85817 8.19998 6.78128 8.27598C6.66661 8.38886 6.45283 8.59909 6.46661 8.68975C6.46928 8.70842 6.49372 8.72486 6.51417 8.73509C6.84794 8.9102 7.06972 9.03686 7.11505 9.19198C7.12288 9.21845 7.12526 9.24624 7.12205 9.27366C7.11884 9.30109 7.11011 9.32757 7.09639 9.35153C7.05328 9.42664 6.9635 9.47286 6.83639 9.48442C6.81713 9.4862 6.79683 9.48709 6.7755 9.48709Z" fill="#5C913B"/>
<path d="M8.66656 10.2222C8.78929 10.2222 8.88878 10.0232 8.88878 9.77776C8.88878 9.5323 8.78929 9.33331 8.66656 9.33331C8.54383 9.33331 8.44434 9.5323 8.44434 9.77776C8.44434 10.0232 8.54383 10.2222 8.66656 10.2222Z" fill="#FFCC4D"/>
<path d="M7.68543 9.41687C7.68543 9.54487 7.5321 9.64842 7.34276 9.64842C7.15387 9.64842 7.0001 9.54487 7.0001 9.41687C7.0001 9.28887 7.15343 9.18531 7.34276 9.18531C7.53165 9.18531 7.68543 9.28887 7.68543 9.41687ZM7.15787 7.36042C7.1801 7.45465 7.05698 7.56487 6.88276 7.6062C6.70854 7.64753 6.54943 7.60442 6.52676 7.5102C6.50454 7.41553 6.62765 7.30531 6.80143 7.26398C6.9761 7.22309 7.13565 7.26576 7.15787 7.36042Z" fill="#FFCC4D"/>
<path d="M10.0146 9.75778C10.0546 9.78889 10.1226 9.43378 10.1124 9.32311C10.1124 9.31555 10.0995 9.08044 10.1493 8.91244C10.1799 8.85555 10.1817 8.43111 10.1346 8.31956C10.1719 8.31644 10.2168 8.30444 10.2221 8.25911C10.0497 8.32267 10.0093 7.896 9.84348 7.65067C9.68259 7.40489 9.48303 7.26178 9.27459 7.11244C9.2921 7.06889 9.3164 7.02839 9.34659 6.99244C9.09104 7.12044 8.69281 6.65689 8.10437 6.69156C7.97237 6.70444 7.9097 6.71244 7.87592 6.79333C7.76615 6.80222 7.65459 6.82711 7.65459 6.97156C7.65459 7.00622 7.68615 7.06933 7.75637 7.06978C7.85237 7.09778 7.93059 7.076 7.99592 7.21022L8.01326 7.34889C8.01326 7.34889 7.92748 7.23911 7.88037 7.22178L7.90926 7.16267C7.86481 7.13689 7.78615 7.15778 7.78615 7.15778C7.78615 7.15778 7.61504 7.07778 7.4777 7.09911L7.45103 6.988C7.42703 7.05644 7.37326 7.05289 7.3657 7.11733C7.35059 7.07111 7.33059 7.01378 7.31637 6.96756C7.26792 7.03333 7.28215 7.10444 7.26481 7.17289C7.24615 7.18889 7.20792 7.18933 7.19815 7.14533C7.19326 7.09111 7.18659 7.08622 7.18659 7.02178C7.15192 7.08267 7.11015 7.11244 7.09637 7.21689L7.05948 7.10133C7.06081 7.23778 6.94348 7.31911 6.83237 7.41556C6.80081 7.47333 6.83726 7.47378 6.83992 7.50356L6.89859 7.53289L7.00392 7.52533C7.02126 7.54711 7.00704 7.54889 7.05281 7.56267C7.17548 7.59689 7.32837 7.44978 7.44837 7.68133C7.39326 7.72756 7.3377 7.83556 7.35548 7.856C7.3777 7.856 7.31104 7.88711 7.40081 7.85867C7.30748 7.94933 7.24437 8.06889 7.24437 8.076C7.2337 8.10178 7.2817 8.07244 7.27192 8.11911L7.29415 8.11644C7.08126 8.34667 7.28703 8.59422 7.26437 8.72711C7.29992 8.78444 7.30437 8.72578 7.34881 8.72C7.38615 8.88356 7.4937 8.98267 7.55948 9.112L7.42081 9.11333C7.42392 9.17467 7.47948 9.23289 7.52348 9.28667L7.43059 9.316C7.37067 9.34548 7.31743 9.38693 7.27415 9.43778C7.24348 9.51244 7.42215 9.53022 7.50837 9.54355L7.50526 9.63378C7.63992 9.64667 7.79548 9.60667 7.79548 9.59911L7.82926 9.57289L7.90526 9.61467C7.93059 9.61467 7.97015 9.51333 7.95192 9.43555C8.00081 9.49378 8.04703 9.58756 8.09592 9.64622L8.1417 9.64C8.18348 9.70622 8.24081 9.772 8.28259 9.83822L8.32926 9.856C8.35637 9.84667 8.37948 9.84356 8.39415 9.79022L8.41548 9.82755L8.48926 9.77689L8.54081 9.76667L8.57948 9.82978C8.60215 9.82133 8.62437 9.772 8.6257 9.71955C8.64881 9.76533 8.65503 9.76178 8.67192 9.77378L8.70615 9.70178L8.89059 9.87422L9.03015 9.88222C9.07992 9.916 9.21637 9.93733 9.23948 9.88267C9.35148 9.93067 9.48348 9.87644 9.47681 9.82311C9.57992 9.864 9.73859 9.83644 9.73859 9.82978C9.7577 9.82756 9.80659 9.77956 9.76037 9.74356C9.41948 9.50622 8.91415 9.11333 8.71903 9.01867C8.71903 8.94844 8.66615 8.69556 8.60926 8.62622L8.65548 8.54889C8.78837 8.67289 8.83637 8.66089 8.90703 8.68044C8.98259 8.74044 9.00881 8.83156 9.08437 8.91467L9.15192 8.92711C9.09665 8.7826 9.01292 8.65066 8.9057 8.53911C8.97859 8.57556 9.09948 8.67289 9.18037 8.74356C9.2337 8.83289 9.24926 8.904 9.29815 9.016C9.3337 9.03867 9.37015 9.12178 9.36526 9.05289C9.35681 8.92355 9.2657 8.71867 9.2657 8.704C9.41059 8.81867 9.40881 8.99733 9.45281 9.10622C9.4897 9.16133 9.50837 9.23511 9.52437 9.21778L9.4817 8.88178L9.45681 8.75867C9.56392 8.82044 9.60215 9.056 9.65237 9.33867C9.65237 9.38355 9.67059 9.43289 9.66792 9.46178C9.69103 9.49022 9.71726 9.56889 9.71681 9.52222C9.71681 9.52222 9.71681 9.06267 9.68526 8.95733C9.67726 8.90089 9.69859 8.80933 9.69859 8.80933C9.7377 9 9.77948 9.20667 9.81904 9.39689V9.53689L9.8777 9.596C9.88881 9.48044 9.90215 9.36578 9.9137 9.25111L9.8697 8.84V8.72267C9.86881 8.68133 9.90748 8.68889 9.93192 8.736C9.9377 8.83689 9.9377 8.91555 9.9417 9.016C9.95903 9.13067 9.97104 9.21467 9.97948 9.36089C9.98437 9.47911 9.9897 9.76267 10.0146 9.75778Z" fill="#C1694F"/>
</svg>
