<svg width="1em" height="1em" viewBox="0 0 16 16" fill="none" xmlns="http://www.w3.org/2000/svg">
<g clip-path="url(#clip0_129_47)">
<path d="M16.0001 13.7778C16.0001 14.2493 15.8128 14.7015 15.4794 15.0349C15.146 15.3683 14.6938 15.5556 14.2223 15.5556H10.6667V4H14.2223C14.6938 4 15.146 4.1873 15.4794 4.5207C15.8128 4.8541 16.0001 5.30628 16.0001 5.77778V13.7778Z" fill="#ED2939"/>
<path d="M1.77778 4C1.30628 4 0.854097 4.1873 0.520699 4.5207C0.187301 4.8541 0 5.30628 0 5.77778L0 13.7778C0 14.2493 0.187301 14.7015 0.520699 15.0349C0.854097 15.3683 1.30628 15.5556 1.77778 15.5556H5.33333V4H1.77778Z" fill="#002495"/>
<path d="M5.33325 4H10.6666V15.5556H5.33325V4Z" fill="#EEEEEE"/>
</g>
<defs>
<clipPath id="clip0_129_47">
<rect width="16" height="16" fill="white"/>
</clipPath>
</defs>
</svg>
