<svg width="16" height="16" viewBox="0 0 16 16" fill="none" xmlns="http://www.w3.org/2000/svg">
<path d="M14.2222 2H1.77778C1.30628 2 0.854097 2.1873 0.520699 2.5207C0.187301 2.8541 0 3.30628 0 3.77778L0 7.77778H16V3.77778C16 3.30628 15.8127 2.8541 15.4793 2.5207C15.1459 2.1873 14.6937 2 14.2222 2Z" fill="#FBD116"/>
<path d="M0 7.77783H16V10.8889H0V7.77783Z" fill="#22408C"/>
<path d="M0 11.7779C0 12.2494 0.187301 12.7016 0.520699 13.035C0.854097 13.3684 1.30628 13.5557 1.77778 13.5557H14.2222C14.6937 13.5557 15.1459 13.3684 15.4793 13.035C15.8127 12.7016 16 12.2494 16 11.7779V10.889H0V11.7779Z" fill="#CE2028"/>
</svg>
