<svg width="1em" height="1em" viewBox="0 0 16 16" fill="none" xmlns="http://www.w3.org/2000/svg">
<path d="M16 13.7778C16 14.2493 15.8127 14.7015 15.4793 15.0349C15.1459 15.3683 14.6937 15.5556 14.2222 15.5556H1.77778C1.30628 15.5556 0.854097 15.3683 0.520699 15.0349C0.187301 14.7015 0 14.2493 0 13.7778V5.77778C0 5.30628 0.187301 4.8541 0.520699 4.5207C0.854097 4.1873 1.30628 4 1.77778 4H14.2222C14.6937 4 15.1459 4.1873 15.4793 4.5207C15.8127 4.8541 16 5.30628 16 5.77778V13.7778Z" fill="#006600"/>
<path d="M14.2223 4H6.66675V15.5556H14.2223C14.6938 15.5556 15.146 15.3683 15.4794 15.0349C15.8128 14.7015 16.0001 14.2493 16.0001 13.7778V5.77778C16.0001 5.30628 15.8128 4.8541 15.4794 4.5207C15.146 4.1873 14.6938 4 14.2223 4Z" fill="#D52B1E"/>
<path d="M6.66664 6.22217C5.72365 6.22217 4.81928 6.59677 4.15248 7.26357C3.48569 7.93036 3.11108 8.83473 3.11108 9.77772C3.11108 10.7207 3.48569 11.6251 4.15248 12.2919C4.81928 12.9587 5.72365 13.3333 6.66664 13.3333C7.60963 13.3333 8.514 12.9587 9.1808 12.2919C9.84759 11.6251 10.2222 10.7207 10.2222 9.77772C10.2222 8.83473 9.84759 7.93036 9.1808 7.26357C8.514 6.59677 7.60963 6.22217 6.66664 6.22217ZM3.94975 8.26395L4.66175 8.97595L3.56842 9.52261C3.6037 9.08055 3.73376 8.65126 3.94975 8.26395ZM3.56842 10.0324L5.52397 11.0133L4.32131 11.8151L4.32753 11.8244C3.88828 11.3243 3.62207 10.6958 3.56842 10.0324ZM6.2222 12.8533C5.81479 12.7951 5.42312 12.6561 5.0702 12.4444H6.2222V12.8533ZM6.2222 11.9999H4.84486L6.2222 11.0817V11.9999ZM6.2222 10.5475L5.95242 10.7275L4.05242 9.77772L4.99286 9.3075L6.2222 10.5364V10.5475ZM6.2222 9.90795L4.64753 8.33328L6.2222 8.5955V9.90795ZM6.2222 8.13372L4.25242 7.81683C4.74521 7.21048 5.44866 6.8124 6.2222 6.70217V8.13372ZM9.38353 8.26395C9.59958 8.6514 9.72964 9.08084 9.76486 9.52306L8.67153 8.97639L9.38353 8.26395ZM7.11108 6.70217C7.88433 6.81324 8.5875 7.21115 9.08086 7.81683L7.11108 8.13372V6.70217ZM7.11108 8.5955L8.68575 8.33283L7.11108 9.90795V8.5955ZM7.11108 10.5364L8.33997 9.3075L9.28086 9.77772L7.38131 10.7275L7.11108 10.5475V10.5364ZM7.11108 12.8533V12.4444H8.26308C7.91016 12.6561 7.51849 12.7951 7.11108 12.8533ZM7.11108 11.9999V11.0817L8.48842 11.9999H7.11108ZM9.0062 11.8244L9.01242 11.8151L7.80975 11.0133L9.76531 10.0324C9.71104 10.6957 9.4449 11.3239 9.0062 11.8244Z" fill="#FFCC4D"/>
<path d="M4.88892 7.55548V10.6666C4.88892 11.1381 5.07622 11.5903 5.40961 11.9237C5.74301 12.2571 6.1952 12.4444 6.66669 12.4444C7.13819 12.4444 7.59037 12.2571 7.92377 11.9237C8.25717 11.5903 8.44447 11.1381 8.44447 10.6666V7.55548H4.88892Z" fill="#D52B1E"/>
<path d="M5.33325 8V10.6667C5.33325 11.0203 5.47373 11.3594 5.72378 11.6095C5.97382 11.8595 6.31296 12 6.66659 12C7.02021 12 7.35935 11.8595 7.60939 11.6095C7.85944 11.3594 7.99992 11.0203 7.99992 10.6667V8H5.33325Z" fill="white"/>
<path d="M5.77759 9.33331H7.55537V10.2222H5.77759V9.33331Z" fill="#829ACD"/>
<path d="M6.22241 8.88885H7.1113V10.6666H6.22241V8.88885Z" fill="#829ACD"/>
<path d="M5.33325 9.33333H5.7777V10.2222H5.33325V9.33333ZM6.22214 9.33333H7.11103V10.2222H6.22214V9.33333ZM7.55547 9.33333H7.99992V10.2222H7.55547V9.33333ZM6.22214 10.6667H7.11103V11.5556H6.22214V10.6667ZM6.22214 8H7.11103V8.88889H6.22214V8Z" fill="#003399"/>
</svg>
