<svg width="1em" height="1em" viewBox="0 0 16 16" fill="none" xmlns="http://www.w3.org/2000/svg">
<path d="M16 13.7778C16 14.2493 15.8127 14.7015 15.4793 15.0349C15.1459 15.3683 14.6937 15.5556 14.2222 15.5556H1.77778C1.30628 15.5556 0.854097 15.3683 0.520699 15.0349C0.187301 14.7015 0 14.2493 0 13.7778V5.77778C0 5.30628 0.187301 4.8541 0.520699 4.5207C0.854097 4.1873 1.30628 4 1.77778 4H14.2222C14.6937 4 15.1459 4.1873 15.4793 4.5207C15.8127 4.8541 16 5.30628 16 5.77778V13.7778Z" fill="#009B3A"/>
<path d="M14.5457 9.77782L7.99988 14.7218L1.4541 9.77782L7.99988 4.83337L14.5457 9.77782Z" fill="#FEDF01"/>
<path d="M7.98936 12.6143C9.57454 12.6143 10.8596 11.3293 10.8596 9.74412C10.8596 8.15894 9.57454 6.8739 7.98936 6.8739C6.40418 6.8739 5.11914 8.15894 5.11914 9.74412C5.11914 11.3293 6.40418 12.6143 7.98936 12.6143Z" fill="#002776"/>
<path d="M5.45663 8.39421C5.30751 8.67511 5.20655 8.97903 5.15796 9.29332C6.93351 9.16443 9.34329 10.1338 10.3775 11.3355C10.5562 11.0671 10.6886 10.7667 10.77 10.4449C9.49352 9.19688 7.25129 8.3871 5.45663 8.39421Z" fill="#CBE9D4"/>
<path d="M5.33325 9.88135H5.7777V10.3258H5.33325V9.88135ZM5.7777 10.7702H6.22214V11.2147H5.7777V10.7702Z" fill="#88C9F9"/>
<path d="M6.66675 9.88144H7.11119V10.3259H6.66675V9.88144ZM7.55564 10.3259H8.00008V10.7703H7.55564V10.3259ZM9.33341 11.2148H9.77786V11.6592H9.33341V11.2148ZM8.00008 11.6592H8.44453V12.1037H8.00008V11.6592ZM9.33341 8.99255H9.77786V9.437H9.33341V8.99255Z" fill="#55ACEE"/>
<path d="M8.44434 10.7704H8.88878V11.2148H8.44434V10.7704Z" fill="#3B88C3"/>
</svg>
