<svg width="1em" height="1em" viewBox="0 0 16 16" fill="none" xmlns="http://www.w3.org/2000/svg">
<path d="M16 13.7778C16 14.2493 15.8127 14.7015 15.4793 15.0349C15.1459 15.3683 14.6937 15.5556 14.2222 15.5556H1.77778C1.30628 15.5556 0.854097 15.3683 0.520699 15.0349C0.187301 14.7015 0 14.2493 0 13.7778V5.77778C0 5.30628 0.187301 4.8541 0.520699 4.5207C0.854097 4.1873 1.30628 4 1.77778 4H14.2222C14.6937 4 15.1459 4.1873 15.4793 4.5207C15.8127 4.8541 16 5.30628 16 5.77778V13.7778Z" fill="#C60A1D"/>
<path d="M0 7.11108H16V12.4444H0V7.11108Z" fill="#FFC400"/>
<path d="M4 9.33331V10.6666C4 11.0203 4.14048 11.3594 4.39052 11.6095C4.64057 11.8595 4.97971 12 5.33333 12C5.68696 12 6.02609 11.8595 6.27614 11.6095C6.52619 11.3594 6.66667 11.0203 6.66667 10.6666V9.33331H4Z" fill="#EA596E"/>
<path d="M5.33325 8.88885H6.66659V10.2222H5.33325V8.88885Z" fill="#F4A2B2"/>
<path d="M4 8.88885H5.33333V10.2222H4V8.88885Z" fill="#DD2E44"/>
<path d="M5.33333 8.88881C6.06971 8.88881 6.66667 8.59034 6.66667 8.22215C6.66667 7.85396 6.06971 7.55548 5.33333 7.55548C4.59695 7.55548 4 7.85396 4 8.22215C4 8.59034 4.59695 8.88881 5.33333 8.88881Z" fill="#EA596E"/>
<path d="M5.33333 8.22215C6.06971 8.22215 6.66667 8.07291 6.66667 7.88881C6.66667 7.70472 6.06971 7.55548 5.33333 7.55548C4.59695 7.55548 4 7.70472 4 7.88881C4 8.07291 4.59695 8.22215 5.33333 8.22215Z" fill="#FFAC33"/>
<path d="M3.11108 8.88885H3.55553V12H3.11108V8.88885ZM7.11108 8.88885H7.55553V12H7.11108V8.88885Z" fill="#99AAB5"/>
<path d="M2.66675 11.5555H4.00008V12H2.66675V11.5555ZM6.66675 11.5555H8.00008V12H6.66675V11.5555ZM3.11119 8.4444H3.55564V8.88884H3.11119V8.4444ZM7.11119 8.4444H7.55564V8.88884H7.11119V8.4444Z" fill="#66757F"/>
</svg>
