<svg width="1em" height="1em" viewBox="0 0 16 16" fill="none" xmlns="http://www.w3.org/2000/svg">
<path d="M16 13.7778C16 14.2493 15.8127 14.7015 15.4793 15.0349C15.1459 15.3683 14.6937 15.5556 14.2222 15.5556H1.77778C1.30628 15.5556 0.854097 15.3683 0.520699 15.0349C0.187301 14.7015 0 14.2493 0 13.7778V5.77778C0 5.30628 0.187301 4.8541 0.520699 4.5207C0.854097 4.1873 1.30628 4 1.77778 4H14.2222C14.6937 4 15.1459 4.1873 15.4793 4.5207C15.8127 4.8541 16 5.30628 16 5.77778V13.7778Z" fill="#75AADB"/>
<path d="M0 7.55548H16V11.9999H0V7.55548Z" fill="#EEEEEE"/>
<path d="M7.99981 7.55548L8.2167 8.68793L8.85048 7.72481L8.61714 8.8537L9.57092 8.20615L8.92337 9.16037L10.0527 8.92748L9.08959 9.56081L10.222 9.7777L9.08959 9.99459L10.0527 10.6284L8.92337 10.395L9.57092 11.3488L8.61714 10.7013L8.85048 11.8306L8.2167 10.8675L7.99981 11.9999L7.78292 10.8675L7.14959 11.8306L7.38248 10.7013L6.42825 11.3488L7.07581 10.395L5.94692 10.6284L6.91003 9.99459L5.77759 9.7777L6.91003 9.56081L5.94692 8.92748L7.07581 9.16037L6.42825 8.20615L7.38248 8.8537L7.14959 7.72481L7.78292 8.68793L7.99981 7.55548Z" fill="#FCBF49"/>
<path d="M7.99981 8.14659L8.10737 8.70881L8.15892 8.9777L8.30959 8.74926L8.62426 8.27104L8.50825 8.83148L8.4527 9.09993L8.67937 8.94615L9.15314 8.62481L8.83181 9.09859L8.67803 9.32526L8.94603 9.2697L9.50692 9.15415L9.0287 9.46881L8.79981 9.61859L9.0687 9.67015L9.63092 9.7777L9.0687 9.88526L8.79981 9.93681L9.02825 10.0875L9.50648 10.4021L8.94559 10.2861L8.67714 10.2306L8.83092 10.4573L9.15225 10.9306L8.67892 10.6093L8.45225 10.4555L8.50781 10.7239L8.62381 11.2848L8.30914 10.8066L8.15892 10.5777L8.10737 10.8466L7.99981 11.4088L7.89225 10.8466L7.8407 10.5777L7.69003 10.8066L7.37537 11.2848L7.49092 10.7239L7.54648 10.4559L7.31981 10.6097L6.84603 10.931L7.16737 10.4573L7.32114 10.2306L7.0527 10.2861L6.49225 10.4021L6.97048 10.0875L7.19892 9.93681L6.93003 9.88526L6.3687 9.7777L6.93092 9.67015L7.19981 9.61859L6.97092 9.46793L6.4927 9.15326L7.05314 9.26881L7.32114 9.32437L7.16737 9.0977L6.84559 8.62393L7.31937 8.9457L7.54603 9.09948L7.49048 8.83148L7.37492 8.27104L7.68959 8.74926L7.84026 8.97815L7.89181 8.70926L7.99981 8.14659ZM7.99981 7.55548L7.78292 8.68793L7.14959 7.72481L7.38248 8.85415L6.42825 8.20659L7.07581 9.16081L5.94692 8.92793L6.91003 9.56126L5.77759 9.7777L6.91003 9.99459L5.94692 10.6284L7.07581 10.395L6.42825 11.3488L7.38248 10.7013L7.14959 11.8306L7.78292 10.8675L7.99981 11.9999L8.2167 10.8675L8.85048 11.8306L8.61714 10.7013L9.57092 11.3488L8.92337 10.395L10.0527 10.6284L9.08959 9.99459L10.222 9.7777L9.08959 9.56081L10.0527 8.92748L8.92337 9.16037L9.57092 8.20615L8.61714 8.8537L8.85048 7.72437L8.2167 8.68748L7.99981 7.55548Z" fill="#843511"/>
<path d="M7.99997 10.6666C8.49089 10.6666 8.88886 10.2687 8.88886 9.77774C8.88886 9.28682 8.49089 8.88885 7.99997 8.88885C7.50905 8.88885 7.11108 9.28682 7.11108 9.77774C7.11108 10.2687 7.50905 10.6666 7.99997 10.6666Z" fill="#FCBF49"/>
<path d="M8.00011 10.7222C7.47922 10.7222 7.05566 10.2986 7.05566 9.77776C7.05566 9.25687 7.47922 8.83331 8.00011 8.83331C8.521 8.83331 8.94455 9.25687 8.94455 9.77776C8.94455 10.2986 8.521 10.7222 8.00011 10.7222ZM8.00011 8.94442C7.54055 8.94442 7.16678 9.3182 7.16678 9.77776C7.16678 10.2373 7.54055 10.6111 8.00011 10.6111C8.45966 10.6111 8.83344 10.2373 8.83344 9.77776C8.83344 9.3182 8.45966 8.94442 8.00011 8.94442Z" fill="#843511"/>
<path d="M7.91149 9.67731C7.91149 9.7462 7.79549 9.80175 7.65238 9.80175C7.50882 9.80175 7.39282 9.7462 7.39282 9.67731C7.39282 9.60842 7.50882 9.55286 7.65238 9.55286C7.79593 9.55286 7.91149 9.60842 7.91149 9.67731ZM8.60171 9.66664C8.60171 9.59509 8.48349 9.53687 8.33771 9.53687C8.19193 9.53687 8.07371 9.59464 8.07371 9.66664C8.07371 9.73864 8.19193 9.79642 8.33771 9.79642C8.48393 9.79642 8.60171 9.7382 8.60171 9.66664Z" fill="#C16540"/>
<path d="M7.76147 10.1662C7.76147 10.1102 7.87081 10.0645 8.00503 10.0645C8.13925 10.0645 8.24859 10.1098 8.24859 10.1662C8.24859 10.2222 8.13925 10.268 8.00503 10.268C7.87081 10.268 7.76147 10.2222 7.76147 10.1662Z" fill="#ED8662"/>
</svg>
