<svg width="16" height="16" viewBox="0 0 16 16" fill="none" xmlns="http://www.w3.org/2000/svg">
<g clip-path="url(#clip0_129_47)">
<path d="M16.0001 11.7778C16.0001 12.2493 15.8128 12.7015 15.4794 13.0349C15.146 13.3683 14.6938 13.5556 14.2223 13.5556H10.6667V2H14.2223C14.6938 2 15.146 2.1873 15.4794 2.5207C15.8128 2.8541 16.0001 3.30628 16.0001 3.77778V11.7778Z" fill="#ED2939"/>
<path d="M1.77778 2C1.30628 2 0.854097 2.1873 0.520699 2.5207C0.187301 2.8541 0 3.30628 0 3.77778L0 11.7778C0 12.2493 0.187301 12.7015 0.520699 13.0349C0.854097 13.3683 1.30628 13.5556 1.77778 13.5556H5.33333V2H1.77778Z" fill="#002495"/>
<path d="M5.33325 2H10.6666V13.5556H5.33325V2Z" fill="#EEEEEE"/>
</g>
<defs>
<clipPath id="clip0_129_47">
<rect width="16" height="16" fill="white"/>
</clipPath>
</defs>
</svg>
