<svg width="1em" height="1em" viewBox="0 0 16 16" fill="none" xmlns="http://www.w3.org/2000/svg">
<path d="M14.2222 4H1.77778C1.30628 4 0.854097 4.1873 0.520699 4.5207C0.187301 4.8541 0 5.30628 0 5.77778L0 9.77778H16V5.77778C16 5.30628 15.8127 4.8541 15.4793 4.5207C15.1459 4.1873 14.6937 4 14.2222 4Z" fill="#FBD116"/>
<path d="M0 9.77783H16V12.8889H0V9.77783Z" fill="#22408C"/>
<path d="M0 13.7779C0 14.2494 0.187301 14.7016 0.520699 15.035C0.854097 15.3684 1.30628 15.5557 1.77778 15.5557H14.2222C14.6937 15.5557 15.1459 15.3684 15.4793 15.035C15.8127 14.7016 16 14.2494 16 13.7779V12.889H0V13.7779Z" fill="#CE2028"/>
</svg>
