<svg width="16" height="16" viewBox="0 0 16 16" fill="none" xmlns="http://www.w3.org/2000/svg">
<path d="M16 11.7778C16 12.2493 15.8127 12.7015 15.4793 13.0349C15.1459 13.3683 14.6937 13.5556 14.2222 13.5556H1.77778C1.30628 13.5556 0.854097 13.3683 0.520699 13.0349C0.187301 12.7015 0 12.2493 0 11.7778V3.77778C0 3.30628 0.187301 2.8541 0.520699 2.5207C0.854097 2.1873 1.30628 2 1.77778 2H14.2222C14.6937 2 15.1459 2.1873 15.4793 2.5207C15.8127 2.8541 16 3.30628 16 3.77778V11.7778Z" fill="#C60A1D"/>
<path d="M0 5.11108H16V10.4444H0V5.11108Z" fill="#FFC400"/>
<path d="M4 7.33331V8.66665C4 9.02027 4.14048 9.35941 4.39052 9.60946C4.64057 9.8595 4.97971 9.99998 5.33333 9.99998C5.68696 9.99998 6.02609 9.8595 6.27614 9.60946C6.52619 9.35941 6.66667 9.02027 6.66667 8.66665V7.33331H4Z" fill="#EA596E"/>
<path d="M5.33325 6.88885H6.66659V8.22219H5.33325V6.88885Z" fill="#F4A2B2"/>
<path d="M4 6.88885H5.33333V8.22219H4V6.88885Z" fill="#DD2E44"/>
<path d="M5.33333 6.88881C6.06971 6.88881 6.66667 6.59034 6.66667 6.22215C6.66667 5.85396 6.06971 5.55548 5.33333 5.55548C4.59695 5.55548 4 5.85396 4 6.22215C4 6.59034 4.59695 6.88881 5.33333 6.88881Z" fill="#EA596E"/>
<path d="M5.33333 6.22215C6.06971 6.22215 6.66667 6.07291 6.66667 5.88881C6.66667 5.70472 6.06971 5.55548 5.33333 5.55548C4.59695 5.55548 4 5.70472 4 5.88881C4 6.07291 4.59695 6.22215 5.33333 6.22215Z" fill="#FFAC33"/>
<path d="M3.11108 6.88885H3.55553V9.99997H3.11108V6.88885ZM7.11108 6.88885H7.55553V9.99997H7.11108V6.88885Z" fill="#99AAB5"/>
<path d="M2.66675 9.55551H4.00008V9.99995H2.66675V9.55551ZM6.66675 9.55551H8.00008V9.99995H6.66675V9.55551ZM3.11119 6.4444H3.55564V6.88884H3.11119V6.4444ZM7.11119 6.4444H7.55564V6.88884H7.11119V6.4444Z" fill="#66757F"/>
</svg>
