<svg width="16" height="16" viewBox="0 0 16 16" fill="none" xmlns="http://www.w3.org/2000/svg">
<g clip-path="url(#clip0_129_38)">
<path d="M16 11.7778C16 12.2493 15.8127 12.7015 15.4793 13.0349C15.1459 13.3683 14.6937 13.5556 14.2222 13.5556H1.77778C1.30628 13.5556 0.854097 13.3683 0.520699 13.0349C0.187301 12.7015 0 12.2493 0 11.7778V3.77778C0 3.30628 0.187301 2.8541 0.520699 2.5207C0.854097 2.1873 1.30628 2 1.77778 2H14.2222C14.6937 2 15.1459 2.1873 15.4793 2.5207C15.8127 2.8541 16 3.30628 16 3.77778V11.7778Z" fill="#006600"/>
<path d="M14.2223 2H6.66675V13.5556H14.2223C14.6938 13.5556 15.146 13.3683 15.4794 13.0349C15.8128 12.7015 16.0001 12.2493 16.0001 11.7778V3.77778C16.0001 3.30628 15.8128 2.8541 15.4794 2.5207C15.146 2.1873 14.6938 2 14.2223 2Z" fill="#D52B1E"/>
<path d="M6.66664 4.22217C5.72365 4.22217 4.81928 4.59677 4.15248 5.26357C3.48569 5.93036 3.11108 6.83473 3.11108 7.77772C3.11108 8.72072 3.48569 9.62509 4.15248 10.2919C4.81928 10.9587 5.72365 11.3333 6.66664 11.3333C7.60963 11.3333 8.514 10.9587 9.1808 10.2919C9.84759 9.62509 10.2222 8.72072 10.2222 7.77772C10.2222 6.83473 9.84759 5.93036 9.1808 5.26357C8.514 4.59677 7.60963 4.22217 6.66664 4.22217ZM3.94975 6.26395L4.66175 6.97595L3.56842 7.52261C3.6037 7.08055 3.73376 6.65126 3.94975 6.26395ZM3.56842 8.03239L5.52397 9.01328L4.32131 9.81506L4.32753 9.82439C3.88828 9.32429 3.62207 8.69584 3.56842 8.03239ZM6.2222 10.8533C5.81479 10.7951 5.42312 10.6561 5.0702 10.4444H6.2222V10.8533ZM6.2222 9.99995H4.84486L6.2222 9.08172V9.99995ZM6.2222 8.5475L5.95242 8.7275L4.05242 7.77772L4.99286 7.3075L6.2222 8.53639V8.5475ZM6.2222 7.90795L4.64753 6.33328L6.2222 6.5955V7.90795ZM6.2222 6.13372L4.25242 5.81683C4.74521 5.21048 5.44866 4.8124 6.2222 4.70217V6.13372ZM9.38353 6.26395C9.59958 6.6514 9.72964 7.08084 9.76486 7.52306L8.67153 6.97639L9.38353 6.26395ZM7.11108 4.70217C7.88433 4.81324 8.5875 5.21115 9.08086 5.81683L7.11108 6.13372V4.70217ZM7.11108 6.5955L8.68575 6.33283L7.11108 7.90795V6.5955ZM7.11108 8.53639L8.33997 7.3075L9.28086 7.77772L7.38131 8.7275L7.11108 8.5475V8.53639ZM7.11108 10.8533V10.4444H8.26308C7.91016 10.6561 7.51849 10.7951 7.11108 10.8533ZM7.11108 9.99995V9.08172L8.48842 9.99995H7.11108ZM9.0062 9.82439L9.01242 9.81506L7.80975 9.01328L9.76531 8.03239C9.71104 8.69569 9.4449 9.32395 9.0062 9.82439Z" fill="#FFCC4D"/>
<path d="M4.88892 5.55548V8.66659C4.88892 9.13809 5.07622 9.59027 5.40961 9.92367C5.74301 10.2571 6.1952 10.4444 6.66669 10.4444C7.13819 10.4444 7.59037 10.2571 7.92377 9.92367C8.25717 9.59027 8.44447 9.13809 8.44447 8.66659V5.55548H4.88892Z" fill="#D52B1E"/>
<path d="M5.33325 6V8.66667C5.33325 9.02029 5.47373 9.35943 5.72378 9.60948C5.97382 9.85952 6.31296 10 6.66659 10C7.02021 10 7.35935 9.85952 7.60939 9.60948C7.85944 9.35943 7.99992 9.02029 7.99992 8.66667V6H5.33325Z" fill="white"/>
<path d="M5.77759 7.33331H7.55537V8.2222H5.77759V7.33331Z" fill="#829ACD"/>
<path d="M6.22241 6.88885H7.1113V8.66663H6.22241V6.88885Z" fill="#829ACD"/>
<path d="M5.33325 7.33333H5.7777V8.22222H5.33325V7.33333ZM6.22214 7.33333H7.11103V8.22222H6.22214V7.33333ZM7.55547 7.33333H7.99992V8.22222H7.55547V7.33333ZM6.22214 8.66667H7.11103V9.55556H6.22214V8.66667ZM6.22214 6H7.11103V6.88889H6.22214V6Z" fill="#003399"/>
</g>
<defs>
<clipPath id="clip0_129_38">
<rect width="16" height="16" fill="white"/>
</clipPath>
</defs>
</svg>
