<svg width="16" height="16" viewBox="0 0 16 16" fill="none" xmlns="http://www.w3.org/2000/svg">
<path d="M16 11.7778C16 12.2493 15.8127 12.7015 15.4793 13.0349C15.1459 13.3683 14.6937 13.5556 14.2222 13.5556H1.77778C1.30628 13.5556 0.854097 13.3683 0.520699 13.0349C0.187301 12.7015 0 12.2493 0 11.7778V3.77778C0 3.30628 0.187301 2.8541 0.520699 2.5207C0.854097 2.1873 1.30628 2 1.77778 2H14.2222C14.6937 2 15.1459 2.1873 15.4793 2.5207C15.8127 2.8541 16 3.30628 16 3.77778V11.7778Z" fill="#009B3A"/>
<path d="M14.5457 7.77782L7.99988 12.7218L1.4541 7.77782L7.99988 2.83337L14.5457 7.77782Z" fill="#FEDF01"/>
<path d="M7.98936 10.6143C9.57454 10.6143 10.8596 9.3293 10.8596 7.74412C10.8596 6.15894 9.57454 4.8739 7.98936 4.8739C6.40418 4.8739 5.11914 6.15894 5.11914 7.74412C5.11914 9.3293 6.40418 10.6143 7.98936 10.6143Z" fill="#002776"/>
<path d="M5.45663 6.39421C5.30751 6.67511 5.20655 6.97903 5.15796 7.29332C6.93351 7.16443 9.34329 8.13377 10.3775 9.33554C10.5562 9.0671 10.6886 8.76666 10.77 8.44488C9.49352 7.19688 7.25129 6.3871 5.45663 6.39421Z" fill="#CBE9D4"/>
<path d="M5.33325 7.88135H5.7777V8.32579H5.33325V7.88135ZM5.7777 8.77024H6.22214V9.21468H5.7777V8.77024Z" fill="#88C9F9"/>
<path d="M6.66675 7.88144H7.11119V8.32589H6.66675V7.88144ZM7.55564 8.32589H8.00008V8.77033H7.55564V8.32589ZM9.33341 9.21478H9.77786V9.65922H9.33341V9.21478ZM8.00008 9.65922H8.44453V10.1037H8.00008V9.65922ZM9.33341 6.99255H9.77786V7.437H9.33341V6.99255Z" fill="#55ACEE"/>
<path d="M8.44434 8.77039H8.88878V9.21483H8.44434V8.77039Z" fill="#3B88C3"/>
</svg>
