<svg width="1em" height="1em" viewBox="0 0 16 16" fill="none" xmlns="http://www.w3.org/2000/svg">
<path d="M16 13.7778C16 14.2493 15.8127 14.7015 15.4793 15.0349C15.1459 15.3683 14.6937 15.5556 14.2222 15.5556H1.77778C1.30628 15.5556 0.854097 15.3683 0.520699 15.0349C0.187301 14.7015 0 14.2493 0 13.7778V5.77778C0 5.30628 0.187301 4.8541 0.520699 4.5207C0.854097 4.1873 1.30628 4 1.77778 4H14.2222C14.6937 4 15.1459 4.1873 15.4793 4.5207C15.8127 4.8541 16 5.30628 16 5.77778V13.7778Z" fill="#EEEEEE"/>
<path d="M9.5294 7.59326C8.95004 7.18768 8.2333 7.02885 7.53684 7.1517C6.84038 7.27456 6.22124 7.66904 5.81562 8.24837C5.62409 8.53832 5.55328 8.89157 5.61826 9.23294C5.68325 9.57431 5.87889 9.87684 6.16356 10.0761C6.44823 10.2754 6.79944 10.3558 7.14244 10.3C7.48544 10.2443 7.79315 10.0569 8.00006 9.7777C8.10051 9.63427 8.22823 9.51203 8.37591 9.41795C8.5236 9.32388 8.68838 9.25981 8.86083 9.22942C9.03328 9.19902 9.21002 9.20289 9.38098 9.2408C9.55193 9.27871 9.71374 9.34992 9.85717 9.45037C10.0006 9.55082 10.1229 9.67853 10.2169 9.82622C10.311 9.97391 10.3751 10.1387 10.4055 10.3111C10.4359 10.4836 10.432 10.6603 10.3941 10.8313C10.3562 11.0022 10.285 11.164 10.1845 11.3075C10.3854 11.0206 10.5278 10.6969 10.6036 10.355C10.6794 10.0131 10.6871 9.65958 10.6263 9.31468C10.5655 8.96977 10.4373 8.64023 10.2491 8.34486C10.0609 8.0495 9.81632 7.7941 9.5294 7.59326Z" fill="#C60C30"/>
<path d="M9.85694 9.45065C9.56732 9.24782 9.20899 9.16833 8.86076 9.22967C8.51253 9.29102 8.20293 9.48817 8.00006 9.77776C7.79365 10.0584 7.48562 10.2472 7.14185 10.3036C6.79809 10.3601 6.44586 10.2799 6.1605 10.08C5.87514 9.88019 5.67929 9.57663 5.61484 9.23427C5.55039 8.8919 5.62245 8.53791 5.81561 8.24799C5.60886 8.53455 5.46112 8.85936 5.38099 9.20352C5.30086 9.54768 5.28993 9.90434 5.34884 10.2528C5.40774 10.6012 5.53531 10.9344 5.72412 11.2331C5.91294 11.5318 6.15924 11.79 6.4487 11.9927C6.73817 12.1953 7.06503 12.3385 7.41029 12.4137C7.75555 12.489 8.11233 12.4949 8.45988 12.431C8.80744 12.3672 9.13884 12.2349 9.43483 12.0419C9.73082 11.8489 9.9855 11.599 10.1841 11.3067C10.2845 11.1633 10.3558 11.0016 10.3937 10.8308C10.4316 10.6599 10.4355 10.4832 10.4051 10.3109C10.3748 10.1385 10.3107 9.9738 10.2166 9.8262C10.1226 9.6786 10.0004 9.55099 9.85694 9.45065Z" fill="#003478"/>
<path d="M10.8151 13.1431L11.672 12.1217L12.0124 12.4075L11.1555 13.4288L10.8151 13.1431ZM11.9573 11.7817L12.8142 10.7608L13.1546 11.0466L12.2977 12.0675L11.9573 11.7817ZM11.496 13.7155L12.3528 12.6946L12.6933 12.9804L11.8364 14.0013L11.496 13.7155ZM12.6391 12.3528L13.4968 11.332L13.8373 11.6182L12.9795 12.6386L12.6391 12.3528ZM12.1764 14.2871L13.0342 13.2662L13.3742 13.552L12.5168 14.5728L12.1764 14.2871ZM13.3191 12.9248L14.1755 11.9026L14.5164 12.1884L13.66 13.2106L13.3191 12.9248ZM13.3208 6.63062L13.6613 6.34484L14.5191 7.36662L14.1782 7.6524L13.3208 6.63062ZM12.1777 5.26796L12.5182 4.98218L13.3751 6.00396L13.0342 6.28929L12.1777 5.26796ZM11.4964 5.8404L11.8368 5.55462L13.8368 7.93773L13.4964 8.22351L11.4964 5.8404ZM10.8155 6.41107L11.1564 6.12529L12.0128 7.14662L11.6724 7.43196L10.8155 6.41107ZM11.9577 7.77329L12.2982 7.48751L13.156 8.5084L12.816 8.79418L11.9577 7.77329ZM2.8444 11.0462L3.18484 10.7604L5.1844 13.144L4.84351 13.4297L2.8444 11.0462ZM2.1644 11.6177L2.5044 11.3324L3.36173 12.3537L3.02084 12.6395L2.1644 11.6177ZM3.30529 12.9804L3.64573 12.6946L4.50351 13.7155L4.16307 14.0013L3.30529 12.9804ZM1.48262 12.1888L1.82307 11.9031L3.82307 14.2862L3.48218 14.572L1.48262 12.1888ZM1.48218 7.36573L3.48129 4.98262L3.82218 5.26796L1.82218 7.65151L1.48218 7.36573ZM2.16307 7.93773L4.16307 5.55418L4.50351 5.83996L2.50351 8.22307L2.16307 7.93773ZM2.8444 8.50884L4.8444 6.12529L5.18484 6.41107L3.18484 8.79462L2.8444 8.50884Z" fill="#292F33"/>
</svg>
