<svg width="24" height="24" viewBox="0 0 24 24" fill="none" xmlns="http://www.w3.org/2000/svg">
<g clip-path="url(#clip0_130_115)">
<circle cx="12" cy="12" r="12" fill="url(#paint0_radial_130_115)"/>
<path d="M12.8523 5.11927C12.8523 5.35017 11.5011 5.35017 11.5011 5.11927C11.5011 4.60616 3 -0.524385 3 3.57994V11.276C3 12.6939 4.98175 12.3861 7.1009 11.4819C6.28619 13.4915 4.53648 17.0007 3.08153 19.426C3.01798 19.5318 2.99049 19.6554 3.0032 19.7782C3.01591 19.901 3.06813 20.0163 3.15202 20.1069C3.2359 20.1974 3.34691 20.2583 3.46836 20.2804C3.58982 20.3025 3.71516 20.2845 3.82554 20.2293L6.82325 18.7304C7.07468 19.1443 7.35404 19.7954 7.60774 20.3872C7.79759 20.8307 7.99428 21.2891 8.19155 21.6842C8.23902 21.7788 8.3118 21.8583 8.40178 21.914C8.49177 21.9696 8.59543 21.9992 8.70124 21.9995C8.85243 21.9995 8.99742 21.9394 9.10432 21.8325C9.91389 21.0234 11.0593 17.0463 11.8369 13.7977C12.6146 17.0463 13.7599 21.0234 14.5695 21.8325C14.6333 21.8965 14.7114 21.9444 14.7974 21.9723C14.8834 22.0002 14.9747 22.0071 15.064 21.9926C15.1532 21.9782 15.2377 21.9426 15.3104 21.889C15.3831 21.8354 15.4421 21.7652 15.4823 21.6842C15.6801 21.2891 15.8762 20.8307 16.0661 20.3872C16.3198 19.7954 16.5992 19.1437 16.8506 18.7304L19.8483 20.2293C19.9587 20.2836 20.0837 20.3008 20.2046 20.2784C20.3256 20.256 20.4361 20.1952 20.5197 20.1049C20.6033 20.0146 20.6555 19.8998 20.6686 19.7775C20.6817 19.6551 20.6549 19.5319 20.5923 19.426C19.033 16.8273 17.1368 12.9858 16.4144 11.0776C18.7651 12.2692 21.244 12.8889 21.244 11.2755V3.57937C21.244 -0.524385 12.8523 4.60616 12.8523 5.11927Z" fill="#DD2E44"/>
<path d="M3.06494 11.6625C3.73598 13.4863 9.60312 10.6437 11.537 8.70984C11.7137 8.5331 11.85 8.36663 11.9691 8.20528C6.01362 8.34896 3.67839 10.4043 3.06494 11.6625ZM12.4617 8.203C12.5826 8.36549 12.72 8.53253 12.8979 8.71041C14.9503 10.7629 21.2439 13.841 21.2439 11.276V11.1568C20.2912 9.90311 17.8021 8.29365 12.4617 8.203Z" fill="#A0041E"/>
<path d="M14.4024 7.97447C14.4024 8.51871 14.1862 9.04068 13.8014 9.42557C13.4166 9.81046 12.8947 10.0268 12.3505 10.0269H11.3231C10.7789 10.0268 10.257 9.81046 9.87219 9.42557C9.4874 9.04068 9.27124 8.51871 9.27124 7.97447V5.808C9.27124 5.26376 9.4874 4.7418 9.87219 4.3569C10.257 3.97201 10.7789 3.75571 11.3231 3.75555H12.3505C12.8947 3.75571 13.4166 3.97201 13.8014 4.3569C14.1862 4.7418 14.4024 5.26376 14.4024 5.808V7.97447Z" fill="#EA596E"/>
</g>
<defs>
<radialGradient id="paint0_radial_130_115" cx="0" cy="0" r="1" gradientUnits="userSpaceOnUse" gradientTransform="translate(12 12) rotate(90) scale(12)">
<stop stop-color="white" stop-opacity="0.2"/>
<stop offset="1" stop-color="white" stop-opacity="0"/>
</radialGradient>
<clipPath id="clip0_130_115">
<rect width="24" height="24" fill="white"/>
</clipPath>
</defs>
</svg>
