<svg width="24" height="24" viewBox="0 0 24 24" fill="none" xmlns="http://www.w3.org/2000/svg">
<g clip-path="url(#clip0_130_125)">
<circle cx="12" cy="12" r="12" fill="url(#paint0_radial_130_125)"/>
<path d="M18.9319 3C19.8424 12.8301 13.3695 19.8424 3 18.9319C7.42258 23.0945 14.3766 23.0249 18.7005 18.7005C23.0249 14.3766 23.095 7.42258 18.9319 3Z" fill="#FFD983"/>
<path d="M19.144 11.166C19.0802 11.2229 19.0288 11.2922 18.9928 11.3696C18.9567 11.4471 18.9369 11.5311 18.9345 11.6165C18.9321 11.7019 18.9471 11.7868 18.9787 11.8662C19.0103 11.9456 19.0578 12.0177 19.1183 12.078C19.1787 12.1384 19.2508 12.1858 19.3302 12.2173C19.4096 12.2488 19.4946 12.2637 19.58 12.2612C19.6654 12.2587 19.7494 12.2388 19.8268 12.2027C19.9042 12.1665 19.9734 12.115 20.0302 12.0512C20.1367 11.9316 20.1933 11.7758 20.1886 11.6157C20.1839 11.4557 20.1182 11.3035 20.0049 11.1903C19.8916 11.0772 19.7393 11.0116 19.5793 11.0071C19.4192 11.0026 19.2635 11.0594 19.144 11.166ZM10.5016 18.9227C10.4141 19.0099 10.3447 19.1135 10.2973 19.2276C10.25 19.3416 10.2256 19.464 10.2256 19.5875C10.2256 19.711 10.25 19.8333 10.2973 19.9474C10.3447 20.0615 10.4141 20.1651 10.5016 20.2523C10.6331 20.3836 10.8005 20.473 10.9828 20.5091C11.165 20.5453 11.3539 20.5266 11.5255 20.4555C11.6972 20.3843 11.8438 20.2639 11.947 20.1094C12.0502 19.9549 12.1053 19.7733 12.1053 19.5875C12.1053 19.4017 12.0502 19.2201 11.947 19.0656C11.8438 18.9111 11.6972 18.7906 11.5255 18.7195C11.3539 18.6483 11.165 18.6296 10.9828 18.6658C10.8005 18.702 10.6331 18.7914 10.5016 18.9227ZM18.036 17.7646C17.8906 17.9101 17.7179 18.0256 17.5278 18.1043C17.3377 18.1831 17.1339 18.2237 16.9281 18.2237C16.7223 18.2237 16.5186 18.1831 16.3285 18.1043C16.1384 18.0256 15.9656 17.9101 15.8202 17.7646C15.6746 17.6192 15.5591 17.4465 15.4803 17.2564C15.4015 17.0664 15.3609 16.8626 15.3609 16.6569C15.3609 16.4511 15.4015 16.2474 15.4803 16.0573C15.5591 15.8673 15.6746 15.6946 15.8202 15.5492C15.9656 15.4035 16.1383 15.288 16.3284 15.2091C16.5185 15.1303 16.7223 15.0897 16.9281 15.0897C17.1339 15.0897 17.3377 15.1303 17.5278 15.2091C17.718 15.288 17.8907 15.4035 18.036 15.5492C18.1816 15.6946 18.2972 15.8673 18.376 16.0573C18.4548 16.2474 18.4953 16.4511 18.4953 16.6569C18.4953 16.8626 18.4548 17.0664 18.376 17.2564C18.2972 17.4465 18.1816 17.6192 18.036 17.7646Z" fill="#FFCC4D"/>
</g>
<defs>
<radialGradient id="paint0_radial_130_125" cx="0" cy="0" r="1" gradientUnits="userSpaceOnUse" gradientTransform="translate(12 12) rotate(90) scale(12)">
<stop stop-color="white" stop-opacity="0.2"/>
<stop offset="1" stop-color="white" stop-opacity="0"/>
</radialGradient>
<clipPath id="clip0_130_125">
<rect width="24" height="24" fill="white"/>
</clipPath>
</defs>
</svg>
