<svg width="24" height="24" viewBox="0 0 24 24" fill="none" xmlns="http://www.w3.org/2000/svg">
<g clip-path="url(#clip0_130_128)">
<circle cx="12" cy="12" r="12" fill="url(#paint0_radial_130_128)"/>
<path d="M10.8889 3.11111C10.8889 3.11111 10.8889 2 12 2C13.1111 2 13.1111 3.11111 13.1111 3.11111V4.22222C13.1111 4.22222 13.1111 5.33333 12 5.33333C10.8889 5.33333 10.8889 4.22222 10.8889 4.22222V3.11111ZM20.8889 10.8889C20.8889 10.8889 22 10.8889 22 12C22 13.1111 20.8889 13.1111 20.8889 13.1111H19.7778C19.7778 13.1111 18.6667 13.1111 18.6667 12C18.6667 10.8889 19.7778 10.8889 19.7778 10.8889H20.8889ZM4.22222 10.8889C4.22222 10.8889 5.33333 10.8889 5.33333 12C5.33333 13.1111 4.22222 13.1111 4.22222 13.1111H3.11111C3.11111 13.1111 2 13.1111 2 12C2 10.8889 3.11111 10.8889 3.11111 10.8889H4.22222ZM7.06722 6.05167C7.06722 6.05167 7.85278 6.83722 7.06722 7.62278C6.28167 8.40833 5.49611 7.62278 5.49611 7.62278L4.71 6.83778C4.71 6.83778 3.92444 6.05222 4.71 5.26611C5.49611 4.48056 6.28167 5.26611 6.28167 5.26611L7.06722 6.05167ZM18.7339 17.7183C18.7339 17.7183 19.5194 18.5039 18.7339 19.2894C17.9483 20.075 17.1628 19.2894 17.1628 19.2894L16.3772 18.5039C16.3772 18.5039 15.5917 17.7183 16.3772 16.9328C17.1628 16.1472 17.9483 16.9328 17.9483 16.9328L18.7339 17.7183ZM18.5044 7.62278C18.5044 7.62278 17.7189 8.40833 16.9333 7.62278C16.1478 6.83722 16.9333 6.05167 16.9333 6.05167L17.7189 5.26611C17.7189 5.26611 18.5044 4.48056 19.29 5.26611C20.0756 6.05167 19.29 6.83722 19.29 6.83722L18.5044 7.62278ZM6.83778 19.2894C6.83778 19.2894 6.05222 20.075 5.26667 19.2894C4.48111 18.5039 5.26667 17.7183 5.26667 17.7183L6.05222 16.9328C6.05222 16.9328 6.83778 16.1472 7.62333 16.9328C8.40889 17.7183 7.62333 18.5039 7.62333 18.5039L6.83778 19.2894ZM10.8889 19.7778C10.8889 19.7778 10.8889 18.6667 12 18.6667C13.1111 18.6667 13.1111 19.7778 13.1111 19.7778V20.8889C13.1111 20.8889 13.1111 22 12 22C10.8889 22 10.8889 20.8889 10.8889 20.8889V19.7778Z" fill="#FFAC33"/>
<path d="M12 17.5556C15.0683 17.5556 17.5556 15.0683 17.5556 12C17.5556 8.93177 15.0683 6.44446 12 6.44446C8.93177 6.44446 6.44446 8.93177 6.44446 12C6.44446 15.0683 8.93177 17.5556 12 17.5556Z" fill="#FFAC33"/>
</g>
<defs>
<radialGradient id="paint0_radial_130_128" cx="0" cy="0" r="1" gradientUnits="userSpaceOnUse" gradientTransform="translate(12 12) rotate(90) scale(12)">
<stop stop-color="white" stop-opacity="0.2"/>
<stop offset="1" stop-color="white" stop-opacity="0"/>
</radialGradient>
<clipPath id="clip0_130_128">
<rect width="24" height="24" fill="white"/>
</clipPath>
</defs>
</svg>
