<svg width="24" height="24" viewBox="0 0 24 24" fill="none" xmlns="http://www.w3.org/2000/svg">
<path opacity="0.5" fill-rule="evenodd" clip-rule="evenodd" d="M6.5 1.75C6.5 1.55109 6.42098 1.36032 6.28033 1.21967C6.13968 1.07902 5.94891 1 5.75 1C5.55109 1 5.36032 1.07902 5.21967 1.21967C5.07902 1.36032 5 1.55109 5 1.75V21.75C5 21.9489 5.07902 22.1397 5.21967 22.2803C5.36032 22.421 5.55109 22.5 5.75 22.5C5.94891 22.5 6.13968 22.421 6.28033 22.2803C6.42098 22.1397 6.5 21.9489 6.5 21.75V3.6V1.75Z" fill="black"/>
<path d="M13.3492 3.79003L13.1452 3.70803C11.5825 3.08299 9.87168 2.92594 8.22124 3.25603L6.50024 3.60003V13.6L8.22024 13.256C9.871 12.9257 11.5822 13.0828 13.1452 13.708C14.8388 14.3853 16.7028 14.5116 18.4722 14.069L18.6862 14.016C18.9901 13.9402 19.2599 13.7649 19.4527 13.5182C19.6454 13.2714 19.7502 12.9672 19.7502 12.654V5.28703C19.7502 5.1048 19.7086 4.92497 19.6287 4.7612C19.5488 4.59742 19.4326 4.454 19.289 4.34181C19.1454 4.22963 18.9781 4.15162 18.7999 4.11371C18.6216 4.0758 18.4371 4.07899 18.2602 4.12303C16.6288 4.53067 14.9104 4.4148 13.3492 3.79003Z" fill="#E72525"/>
</svg>
