<svg width="24" height="24" viewBox="0 0 24 24" fill="none" xmlns="http://www.w3.org/2000/svg">
<g clip-path="url(#clip0_130_113)">
<circle cx="12" cy="12" r="12" fill="url(#paint0_radial_130_113)"/>
<path d="M16.4444 19.1111H18.6667V21.3333H16.4444V19.1111ZM5.33333 19.1111H7.55556V21.3333H5.33333V19.1111ZM18.6667 7.44444H17.5556V6.33333H16.4444V5.22222H14.7778V3H13.6667V5.22222H10.3333V3H9.22222V5.22222H7.55556V6.33333H6.44444V7.44444H5.33333V11.3333H3.11111V12.4444H5.33333V16.3333H7.55556V19.1111H10.3333V16.3333H13.6667V19.1111H16.4444V16.3333H18.6667V12.4444H20.8889V11.3333H18.6667V7.44444ZM10.8889 13.5556H8.66667V9.11111H10.8889V13.5556ZM13.1111 13.5556V9.11111H15.3333V13.5556H13.1111ZM20.8889 5.22222H22V11.3333H20.8889V5.22222ZM2 5.22222H3.11111V11.3333H2V5.22222Z" fill="#553986"/>
</g>
<defs>
<radialGradient id="paint0_radial_130_113" cx="0" cy="0" r="1" gradientUnits="userSpaceOnUse" gradientTransform="translate(12 12) rotate(90) scale(12)">
<stop stop-color="white" stop-opacity="0.2"/>
<stop offset="1" stop-color="white" stop-opacity="0"/>
</radialGradient>
<clipPath id="clip0_130_113">
<rect width="24" height="24" fill="white"/>
</clipPath>
</defs>
</svg>
