<svg width="24" height="24" viewBox="0 0 24 24" fill="none" xmlns="http://www.w3.org/2000/svg">
<g clip-path="url(#clip0_130_119)">
<circle cx="12" cy="12" r="12" fill="url(#paint0_radial_130_119)"/>
<path d="M6.56133 9.28133C6.56133 15.8427 10.9447 15.73 10 16C5.33333 17.3333 4.13133 10.9213 3.69067 10.9213C2.10533 10.9213 0 10.6393 0 9.28133C0 7.922 1.64 6 4.10067 6C5.68667 6 6.56133 7.922 6.56133 9.28133ZM24 15.092C24 15.828 21.6547 14.598 20.6667 15.092C19.3333 15.7587 19.3333 14.4947 19.3333 13.7587C19.3333 13.0227 20.2287 13.092 21.3333 13.092C22.438 13.092 24 14.3553 24 15.092Z" fill="#77B255"/>
<path d="M11.1434 18.0955C11.1434 19.9362 10.2907 20.0002 9.23871 20.0002C8.18671 20.0002 7.33337 19.9355 7.33337 18.0955C7.33337 17.7695 7.39004 17.4095 7.48937 17.0375C7.94937 15.3108 9.32537 13.3335 10.1907 13.3335C11.2427 13.3335 11.1434 16.2548 11.1434 18.0955ZM16.8574 18.0955C16.8574 19.9362 17.7094 20.0002 18.7614 20.0002C19.814 20.0002 20.6667 19.9355 20.6667 18.0955C20.66 17.7376 20.6076 17.3821 20.5107 17.0375C20.05 15.3108 18.6747 13.3335 17.8094 13.3335C16.7574 13.3335 16.8574 16.2548 16.8574 18.0955Z" fill="#77B255"/>
<path d="M21.3333 14C21.3333 16.6667 17.9007 16.6667 13.6667 16.6667C9.43267 16.6667 6 16.6667 6 14C6 9.582 9.43267 6 13.6667 6C17.9007 6 21.3333 9.582 21.3333 14Z" fill="#3E721D"/>
<path d="M3.33329 8.66683C3.70148 8.66683 3.99996 8.36835 3.99996 8.00016C3.99996 7.63197 3.70148 7.3335 3.33329 7.3335C2.9651 7.3335 2.66663 7.63197 2.66663 8.00016C2.66663 8.36835 2.9651 8.66683 3.33329 8.66683Z" fill="#292F33"/>
<path d="M15.778 12.7335C15.778 15.1275 14.8326 15.3335 13.6666 15.3335C12.5006 15.3335 11.5553 15.1268 11.5553 12.7335C11.5553 10.3402 12.5 7.3335 13.6666 7.3335C14.8333 7.3335 15.778 10.3402 15.778 12.7335ZM20 12.0002C20.5806 14.3215 19.4773 14.6668 18.3113 14.6668C17.1453 14.6668 16.6226 15.1268 16.6226 12.7335C16.6226 10.3402 15.8786 8.40016 17.0446 8.40016C18.21 8.40016 19.3333 9.3335 20 12.0002ZM10.7113 12.7335C10.7113 15.1275 10.188 14.6668 9.02197 14.6668C7.85597 14.6668 6.75264 14.3215 7.33331 12.0002C7.99997 9.3335 9.50064 8.40016 10.6666 8.40016C11.8326 8.40016 10.7113 10.3402 10.7113 12.7335Z" fill="#5C913B"/>
</g>
<defs>
<radialGradient id="paint0_radial_130_119" cx="0" cy="0" r="1" gradientUnits="userSpaceOnUse" gradientTransform="translate(12 12) rotate(90) scale(12)">
<stop stop-color="white" stop-opacity="0.2"/>
<stop offset="1" stop-color="white" stop-opacity="0"/>
</radialGradient>
<clipPath id="clip0_130_119">
<rect width="24" height="24" fill="white"/>
</clipPath>
</defs>
</svg>
