<svg width="24" height="24" viewBox="0 0 24 24" fill="none" xmlns="http://www.w3.org/2000/svg">
<g clip-path="url(#clip0_130_99)">
<circle cx="12" cy="12" r="12" fill="url(#paint0_radial_130_99)"/>
<path d="M22 15.0897C22 13.2481 21.4274 12.0708 19.2515 9.98467C17.7115 8.50814 18.0805 6.74299 19.1186 6.98974C20.1566 7.23648 20.3686 8.26977 20.3686 8.26977C20.3686 8.26977 21.004 7.46144 20.1566 6.63023C20.7713 6.83231 21.1268 7.27667 21.281 7.89799C22.0836 6.88367 22.6416 4.47879 20.5094 2.90735C18.5337 1.45092 15.3539 1.74566 13.6098 3.80723C11.638 6.13787 12.7652 8.46627 14.3198 9.76473C15.2597 10.5496 16.0521 11.2256 16.4946 11.9558C14.5834 11.541 12.2941 12.2561 11.412 12.6073C10.4984 12.9712 9.98531 12.4783 9.80641 12.4264C10.4104 11.0001 8.14306 11.1162 8.12568 12.0211C7.90696 11.9932 7.67591 11.982 7.44149 11.9815C7.4286 11.1776 6.20436 11.474 6.25763 12.1462C6.13257 12.183 6.00695 12.2148 5.88246 12.2667C4.06825 13.0232 4.4339 14.0738 3.31509 14.833C2.6539 15.2812 2 15.0495 2 16.0499C2 16.5998 2.88832 17.0318 3.77831 17.0743C5.49326 17.1558 6.34848 16.6243 7.03155 16.8063C8.89678 17.3031 9.31402 19.2631 9.55405 20.5755C9.77108 21.7646 9.74416 22.0253 10.2926 21.9946C10.8411 21.9644 11.975 22.0884 11.975 20.4136C12.9307 20.2612 14.2037 20.8139 15.9007 20.6297C16.1373 20.604 16.2916 21.7875 16.614 21.9354C16.9028 22.0683 17.8198 22.0175 18.2577 21.5815C18.5768 21.2638 18.5886 20.7525 18.5914 20.2049C21.3225 19.0666 22 16.7505 22 15.0897Z" fill="#292F33"/>
<path d="M6.50224 14.4768C6.81124 14.4768 7.06174 14.2263 7.06174 13.9173C7.06174 13.6083 6.81124 13.3578 6.50224 13.3578C6.19324 13.3578 5.94275 13.6083 5.94275 13.9173C5.94275 14.2263 6.19324 14.4768 6.50224 14.4768Z" fill="#E1E8ED"/>
<path d="M4.70117 13.9174C4.93224 12.8913 5.73623 12.1517 6.97999 12.0297C7.84217 11.9452 8.16108 12.0442 8.16108 12.0442C8.16108 12.0442 7.77391 12.6401 7.32072 12.7632C6.68625 12.9366 5.76365 12.6625 4.70117 13.9174ZM10.648 12.804C12.185 13.4323 13.1976 15.4515 14.8951 16.2499C18.2985 17.8512 19.9932 15.7285 20.3927 14.3561C20.87 12.7156 19.5457 10.876 17.8521 9.28313C15.8407 7.39148 16.3112 4.88104 17.4056 3.99256C18.4681 3.13038 19.7722 2.82602 21.3903 3.78891C20.0391 2.36052 18.5302 2.33646 17.1751 2.89931C15.82 3.46216 14.3575 5.21841 15.1581 7.36519C15.8821 9.30551 18.1609 10.5386 18.6997 12.0633C18.975 12.8426 18.5419 14.4243 17.1135 14.6179C14.7508 14.9379 13.4326 13.0933 10.648 12.804Z" fill="#E1E8ED"/>
<path d="M11.5081 12.7699C11.5081 12.7699 13.1709 12.3788 14.7727 12.4711C16.374 12.5634 17.098 12.7699 17.098 12.7699C17.098 12.7699 17.5086 11.7404 15.7585 10.2136C13.7684 8.47746 12.5627 7.25049 13.2503 5.08917C13.8574 3.18129 16.7595 1.25104 19.6621 2.41535C16.6056 1.74396 14.9271 3.54552 14.3111 4.63877C13.6951 5.73203 13.6492 7.30252 15.2197 9.04311C16.7902 10.7837 18.2225 11.7069 17.5601 12.8773C17.3357 13.274 16.3432 13.7009 14.9422 13.3339C13.8893 13.0592 12.7087 12.6468 11.5081 12.7699Z" fill="#E1E8ED"/>
</g>
<defs>
<radialGradient id="paint0_radial_130_99" cx="0" cy="0" r="1" gradientUnits="userSpaceOnUse" gradientTransform="translate(12 12) rotate(90) scale(12)">
<stop stop-color="white" stop-opacity="0.2"/>
<stop offset="1" stop-color="white" stop-opacity="0"/>
</radialGradient>
<clipPath id="clip0_130_99">
<rect width="24" height="24" fill="white"/>
</clipPath>
</defs>
</svg>
