<svg width="24" height="24" viewBox="0 0 24 24" fill="none" xmlns="http://www.w3.org/2000/svg">
<path d="M23 12C23 18.0751 18.0751 23 12 23C5.92487 23 1 18.0751 1 12C1 5.92487 5.92487 1 12 1C18.0751 1 23 5.92487 23 12ZM3.00683 12C3.00683 16.9668 7.03321 20.9932 12 20.9932C16.9668 20.9932 20.9932 16.9668 20.9932 12C20.9932 7.03321 16.9668 3.00683 12 3.00683C7.03321 3.00683 3.00683 7.03321 3.00683 12Z" fill="white"/>
<path d="M12.0546 5C11.4722 5 11 5.44224 11 5.98779V12.3755C11 12.3755 11 12.633 11.1336 12.8267C11.2231 12.991 11.3625 13.1337 11.5457 13.2328L16.4179 15.8675C16.9223 16.1403 17.5674 15.9784 17.8585 15.5059C18.1497 15.0334 17.977 14.4293 17.4725 14.1566L13.1093 11.7972V5.98779C13.1093 5.44225 12.6371 5 12.0546 5Z" fill="white"/>
</svg>
